G04 Layer_Physical_Order=2*
G04 Layer_Color=16711680*
%FSLAX44Y44*%
%MOMM*%
G71*
G01*
G75*
%ADD10C,0.2500*%
%ADD12C,1.2000*%
%ADD13R,1.2000X1.2000*%
G04:AMPARAMS|DCode=14|XSize=1.6002mm|YSize=1.6002mm|CornerRadius=0mm|HoleSize=0mm|Usage=FLASHONLY|Rotation=270.000|XOffset=0mm|YOffset=0mm|HoleType=Round|Shape=Octagon|*
%AMOCTAGOND14*
4,1,8,-0.4001,-0.8001,0.4001,-0.8001,0.8001,-0.4001,0.8001,0.4001,0.4001,0.8001,-0.4001,0.8001,-0.8001,0.4001,-0.8001,-0.4001,-0.4001,-0.8001,0.0*
%
%ADD14OCTAGOND14*%

%ADD15C,0.7000*%
%ADD16R,0.6000X0.8000*%
%ADD17R,0.8000X0.6000*%
G04:AMPARAMS|DCode=18|XSize=1mm|YSize=0.3mm|CornerRadius=0mm|HoleSize=0mm|Usage=FLASHONLY|Rotation=0.000|XOffset=0mm|YOffset=0mm|HoleType=Round|Shape=Octagon|*
%AMOCTAGOND18*
4,1,8,0.5000,-0.0750,0.5000,0.0750,0.4250,0.1500,-0.4250,0.1500,-0.5000,0.0750,-0.5000,-0.0750,-0.4250,-0.1500,0.4250,-0.1500,0.5000,-0.0750,0.0*
%
%ADD18OCTAGOND18*%

G04:AMPARAMS|DCode=19|XSize=1mm|YSize=0.3mm|CornerRadius=0mm|HoleSize=0mm|Usage=FLASHONLY|Rotation=270.000|XOffset=0mm|YOffset=0mm|HoleType=Round|Shape=Octagon|*
%AMOCTAGOND19*
4,1,8,-0.0750,-0.5000,0.0750,-0.5000,0.1500,-0.4250,0.1500,0.4250,0.0750,0.5000,-0.0750,0.5000,-0.1500,0.4250,-0.1500,-0.4250,-0.0750,-0.5000,0.0*
%
%ADD19OCTAGOND19*%

G04:AMPARAMS|DCode=20|XSize=1mm|YSize=0.35mm|CornerRadius=0mm|HoleSize=0mm|Usage=FLASHONLY|Rotation=270.000|XOffset=0mm|YOffset=0mm|HoleType=Round|Shape=Octagon|*
%AMOCTAGOND20*
4,1,8,-0.0875,-0.5000,0.0875,-0.5000,0.1750,-0.4125,0.1750,0.4125,0.0875,0.5000,-0.0875,0.5000,-0.1750,0.4125,-0.1750,-0.4125,-0.0875,-0.5000,0.0*
%
%ADD20OCTAGOND20*%

G36*
X188550Y275000D02*
X153550D01*
Y310000D01*
X188550D01*
Y275000D01*
D02*
G37*
D10*
X63854Y229750D02*
Y268354D01*
X68250Y272750D01*
X40500Y229750D02*
X50392D01*
X47750Y243250D02*
X50142Y245642D01*
Y253750D01*
X114958Y295650D02*
Y301752D01*
X114704Y302006D02*
X114958Y301752D01*
X114704Y302006D02*
Y308150D01*
X114958Y295650D02*
X130048D01*
X130698Y295000D01*
X146050D01*
X115208Y270900D02*
Y276860D01*
X114954Y277114D02*
X115208Y276860D01*
X114954Y277114D02*
Y283150D01*
X146050Y280000D02*
Y285000D01*
X101746Y270900D02*
Y276860D01*
X101492Y277114D02*
X101746Y276860D01*
X101492Y277114D02*
Y283150D01*
Y288290D01*
X107950D02*
Y304546D01*
X105410Y307086D02*
X107950Y304546D01*
X153550Y316992D02*
Y317500D01*
X168550D02*
Y329600D01*
X142550Y355600D02*
X168550Y329600D01*
X172550Y355600D02*
X178550Y349600D01*
Y317500D02*
Y349600D01*
X141550Y267581D02*
X143510Y269541D01*
Y275000D02*
X146050D01*
X94996Y254248D02*
X97857Y251387D01*
X111146D02*
X113904Y248630D01*
X109220Y262890D02*
X115208Y268878D01*
Y270900D01*
X176276Y238252D02*
X255524Y317500D01*
X156718Y238252D02*
X176276D01*
X156718D02*
Y252222D01*
X158550Y254054D01*
Y267500D01*
X153550Y263750D02*
Y267500D01*
X223012Y346062D02*
X232550Y355600D01*
X223012Y315922D02*
Y346062D01*
X212090Y305000D02*
X223012Y315922D01*
X196050Y305000D02*
X212090D01*
X201930Y339979D02*
X217551Y355600D01*
X196050Y310000D02*
X201930D01*
X157551Y355600D02*
X173550Y339601D01*
Y317500D02*
Y339601D01*
X183550Y351599D02*
X187551Y355600D01*
X183550Y317500D02*
Y351599D01*
X188550Y341600D02*
X202550Y355600D01*
X188550Y317500D02*
Y341600D01*
X247551Y319179D02*
Y355600D01*
X228372Y300000D02*
X247551Y319179D01*
X196050Y300000D02*
X228372D01*
X137643Y280000D02*
X146050D01*
X130478Y272835D02*
X137643Y280000D01*
X94996Y254248D02*
Y292862D01*
X97790Y295656D01*
X101496Y295650D02*
Y295656D01*
X13970Y355600D02*
X33020D01*
X34036Y354584D01*
X52070D01*
X137922Y290000D02*
X146050D01*
X121666Y273744D02*
X137922Y290000D01*
X121666Y263398D02*
Y273744D01*
X114156Y255888D02*
X121666Y263398D01*
X105410Y255888D02*
X114156D01*
X101746Y259552D02*
X105410Y255888D01*
X101746Y259552D02*
Y270900D01*
X158550Y317500D02*
Y323850D01*
X13970Y330200D02*
X24892Y341122D01*
X52070D01*
X143510Y269541D02*
Y275000D01*
X201930Y310000D02*
Y339979D01*
X97857Y251387D02*
X111146D01*
X97790Y295656D02*
X101496D01*
X130478Y251387D02*
Y272835D01*
X97282Y304292D02*
X101242D01*
Y307086D01*
Y308150D01*
Y307086D02*
X105410D01*
X101492Y288290D02*
X107950D01*
X1270Y215900D02*
X331470D01*
Y368300D01*
X1270D02*
X331470D01*
X1270Y215900D02*
Y368300D01*
X111146Y251387D02*
X130478D01*
X13970Y228600D02*
Y234375D01*
X80000Y287010D02*
X97282Y304292D01*
X52070Y303070D02*
Y341122D01*
X50250Y301250D02*
X52070Y303070D01*
X80000Y254000D02*
X80500D01*
X80000D02*
Y287010D01*
X303250Y330200D02*
X318770D01*
X295050Y322000D02*
X303250Y330200D01*
X295050Y283800D02*
Y322000D01*
X13970Y234375D02*
X94996Y315401D01*
X13970Y254000D02*
X79871Y319901D01*
X94996Y315401D02*
X120904D01*
X126305Y310000D01*
X146050D01*
X79871Y319901D02*
X125455D01*
X128364Y316992D01*
X153550D01*
X141278Y341122D02*
X158550Y323850D01*
X52070Y341122D02*
X141278D01*
X99250Y327500D02*
X104000Y332250D01*
X89750Y327500D02*
X99250D01*
X163550Y245084D02*
Y267500D01*
X80000Y242000D02*
Y254000D01*
X240647Y229397D02*
X295050Y283800D01*
X80000Y242000D02*
X92603Y229397D01*
X240647D01*
X130478Y236806D02*
Y251387D01*
X138757Y254262D02*
X148244Y263750D01*
X153550D01*
D12*
X247551Y355600D02*
D03*
X232550D02*
D03*
X217551D02*
D03*
X202550D02*
D03*
X187551D02*
D03*
X172550D02*
D03*
X157551D02*
D03*
X142550D02*
D03*
X127551D02*
D03*
X112550D02*
D03*
X97551D02*
D03*
D13*
X82550D02*
D03*
D14*
X13970D02*
D03*
Y330200D02*
D03*
Y304800D02*
D03*
Y279400D02*
D03*
Y254000D02*
D03*
Y228600D02*
D03*
X318770Y355600D02*
D03*
Y330200D02*
D03*
Y304800D02*
D03*
Y279400D02*
D03*
Y254000D02*
D03*
Y228600D02*
D03*
D15*
X68250Y272750D02*
D03*
X40500Y229750D02*
D03*
X47750Y243250D02*
D03*
X141550Y267581D02*
D03*
X113904Y248630D02*
D03*
X109220Y262890D02*
D03*
X255524Y317500D02*
D03*
X50250Y301250D02*
D03*
X80500Y254000D02*
D03*
X104000Y332250D02*
D03*
X89750Y327500D02*
D03*
X163550Y245084D02*
D03*
X130478Y236806D02*
D03*
X138757Y254262D02*
D03*
D16*
X50142Y253750D02*
D03*
X63604D02*
D03*
X50392Y229750D02*
D03*
X63854D02*
D03*
X115208Y270900D02*
D03*
X101746D02*
D03*
X101492Y283150D02*
D03*
X114954D02*
D03*
X101242Y308150D02*
D03*
X114704D02*
D03*
X101496Y295650D02*
D03*
X114958D02*
D03*
D17*
X52070Y341122D02*
D03*
Y354584D02*
D03*
D18*
X146050Y310000D02*
D03*
Y305000D02*
D03*
Y300000D02*
D03*
Y295000D02*
D03*
Y290000D02*
D03*
Y285000D02*
D03*
Y280000D02*
D03*
Y275000D02*
D03*
X196050D02*
D03*
Y280000D02*
D03*
Y285000D02*
D03*
Y290000D02*
D03*
Y295000D02*
D03*
Y300000D02*
D03*
Y305000D02*
D03*
Y310000D02*
D03*
D19*
X153550Y267500D02*
D03*
X158550D02*
D03*
X163550D02*
D03*
X168550D02*
D03*
X173550D02*
D03*
X178550D02*
D03*
X183550D02*
D03*
X188550Y317500D02*
D03*
X183550D02*
D03*
X178550D02*
D03*
X173550D02*
D03*
X168550D02*
D03*
X163550D02*
D03*
X158550D02*
D03*
X153550D02*
D03*
D20*
X188550Y267500D02*
D03*
M02*
