G04 Layer_Color=128*
%FSLAX44Y44*%
%MOMM*%
G71*
G01*
G75*
G04:AMPARAMS|DCode=16|XSize=1mm|YSize=0.3mm|CornerRadius=0mm|HoleSize=0mm|Usage=FLASHONLY|Rotation=90.000|XOffset=0mm|YOffset=0mm|HoleType=Round|Shape=Octagon|*
%AMOCTAGOND16*
4,1,8,0.0750,0.5000,-0.0750,0.5000,-0.1500,0.4250,-0.1500,-0.4250,-0.0750,-0.5000,0.0750,-0.5000,0.1500,-0.4250,0.1500,0.4250,0.0750,0.5000,0.0*
%
%ADD16OCTAGOND16*%

G04:AMPARAMS|DCode=17|XSize=1mm|YSize=0.3mm|CornerRadius=0mm|HoleSize=0mm|Usage=FLASHONLY|Rotation=180.000|XOffset=0mm|YOffset=0mm|HoleType=Round|Shape=Octagon|*
%AMOCTAGOND17*
4,1,8,-0.5000,0.0750,-0.5000,-0.0750,-0.4250,-0.1500,0.4250,-0.1500,0.5000,-0.0750,0.5000,0.0750,0.4250,0.1500,-0.4250,0.1500,-0.5000,0.0750,0.0*
%
%ADD17OCTAGOND17*%

G04:AMPARAMS|DCode=18|XSize=1mm|YSize=0.35mm|CornerRadius=0mm|HoleSize=0mm|Usage=FLASHONLY|Rotation=270.000|XOffset=0mm|YOffset=0mm|HoleType=Round|Shape=Octagon|*
%AMOCTAGOND18*
4,1,8,-0.0875,-0.5000,0.0875,-0.5000,0.1750,-0.4125,0.1750,0.4125,0.0875,0.5000,-0.0875,0.5000,-0.1750,0.4125,-0.1750,-0.4125,-0.0875,-0.5000,0.0*
%
%ADD18OCTAGOND18*%

%ADD19R,0.6000X0.8000*%
%ADD20R,0.8000X0.6000*%
D16*
X153550Y317500D02*
D03*
X158550D02*
D03*
X163550D02*
D03*
X168550D02*
D03*
X173550D02*
D03*
X178550D02*
D03*
X183550D02*
D03*
X188550D02*
D03*
X183550Y267500D02*
D03*
X178550D02*
D03*
X173550D02*
D03*
X168550D02*
D03*
X163550D02*
D03*
X158550D02*
D03*
X153550D02*
D03*
D17*
X196050Y310000D02*
D03*
Y305000D02*
D03*
Y300000D02*
D03*
Y295000D02*
D03*
Y290000D02*
D03*
Y285000D02*
D03*
Y280000D02*
D03*
Y275000D02*
D03*
X146050D02*
D03*
Y280000D02*
D03*
Y285000D02*
D03*
Y290000D02*
D03*
Y295000D02*
D03*
Y300000D02*
D03*
Y305000D02*
D03*
Y310000D02*
D03*
D18*
X188550Y267500D02*
D03*
D19*
X114958Y295650D02*
D03*
X101496D02*
D03*
X114704Y308150D02*
D03*
X101242D02*
D03*
X114954Y283150D02*
D03*
X101492D02*
D03*
X101746Y270900D02*
D03*
X115208D02*
D03*
D20*
X52070Y354584D02*
D03*
Y341122D02*
D03*
M02*
