G04 Layer_Color=32896*
%FSLAX44Y44*%
%MOMM*%
G71*
G01*
G75*
%ADD11C,0.2500*%
%ADD35C,0.1000*%
%ADD36C,0.1500*%
D11*
X1270Y215900D02*
Y368300D01*
X331470D01*
Y215900D02*
Y368300D01*
X1270Y215900D02*
X331470D01*
D35*
X146050Y267500D02*
Y272500D01*
Y312500D02*
Y317500D01*
Y267500D02*
X151050D01*
X191050D02*
X196050D01*
Y312500D02*
Y317500D01*
X191050D02*
X196050D01*
X146050D02*
X151050D01*
X196050Y267500D02*
Y272500D01*
D36*
X200660Y336198D02*
Y331200D01*
X199660Y330200D01*
X197661D01*
X196661Y331200D01*
Y336198D01*
X194662Y330200D02*
X192663D01*
X193662D01*
Y336198D01*
X194662Y335198D01*
X86510Y291840D02*
X92508D01*
Y294839D01*
X91508Y295839D01*
X89509D01*
X88509Y294839D01*
Y291840D01*
Y293839D02*
X86510Y295839D01*
Y297838D02*
Y299837D01*
Y298838D01*
X92508D01*
X91508Y297838D01*
X114365Y325800D02*
X115365Y326800D01*
X117364D01*
X118364Y325800D01*
Y321802D01*
X117364Y320802D01*
X115365D01*
X114365Y321802D01*
X112366Y320802D02*
X110367D01*
X111366D01*
Y326800D01*
X112366Y325800D01*
X54421Y331388D02*
X55421Y332388D01*
X57420D01*
X58420Y331388D01*
Y327390D01*
X57420Y326390D01*
X55421D01*
X54421Y327390D01*
X49423Y326390D02*
Y332388D01*
X52422Y329389D01*
X48423D01*
X114619Y300654D02*
X115619Y301654D01*
X117618D01*
X118618Y300654D01*
Y296656D01*
X117618Y295656D01*
X115619D01*
X114619Y296656D01*
X112620Y300654D02*
X111620Y301654D01*
X109621D01*
X108621Y300654D01*
Y299655D01*
X109621Y298655D01*
X110621D01*
X109621D01*
X108621Y297655D01*
Y296656D01*
X109621Y295656D01*
X111620D01*
X112620Y296656D01*
X114873Y288462D02*
X115873Y289462D01*
X117872D01*
X118872Y288462D01*
Y284464D01*
X117872Y283464D01*
X115873D01*
X114873Y284464D01*
X108875Y283464D02*
X112874D01*
X108875Y287463D01*
Y288462D01*
X109875Y289462D01*
X111874D01*
X112874Y288462D01*
M02*
