G04 Layer_Color=9279142*
%FSLAX44Y44*%
%MOMM*%
G71*
G01*
G75*
%ADD10C,0.2500*%
%ADD21C,0.1270*%
%ADD22C,0.5080*%
%ADD23R,0.5080X0.5080*%
%ADD24R,0.4999X0.5001*%
%ADD25R,0.5001X0.5001*%
%ADD26R,0.5080X2.4892*%
G36*
X305021Y243665D02*
X304771D01*
Y217363D01*
X287797D01*
Y246900D01*
X288047D01*
Y274900D01*
X305021D01*
Y243665D01*
D02*
G37*
G36*
X44771Y243915D02*
X44271D01*
Y216863D01*
X27297D01*
Y246400D01*
X27797D01*
Y275150D01*
X44771D01*
Y243915D01*
D02*
G37*
G36*
X45880Y344442D02*
X45771D01*
Y315521D01*
X28797D01*
Y347400D01*
X29047D01*
Y366400D01*
X45880D01*
Y344442D01*
D02*
G37*
G36*
X305130Y344192D02*
X305021D01*
Y315271D01*
X288047D01*
Y347150D01*
X288297D01*
Y366150D01*
X305130D01*
Y344192D01*
D02*
G37*
G36*
X225977Y219570D02*
X143550D01*
Y234527D01*
X225977D01*
Y219570D01*
D02*
G37*
%LPC*%
G36*
X301520Y226495D02*
X290970D01*
Y220363D01*
X292762D01*
Y224734D01*
X301520D01*
Y226495D01*
D02*
G37*
G36*
X296316Y235630D02*
X296190D01*
X295718Y235614D01*
X295278Y235583D01*
X294853Y235520D01*
X294460Y235441D01*
X294099Y235347D01*
X293769Y235253D01*
X293454Y235142D01*
X293187Y235017D01*
X292935Y234907D01*
X292715Y234797D01*
X292526Y234702D01*
X292385Y234608D01*
X292259Y234529D01*
X292165Y234466D01*
X292118Y234435D01*
X292102Y234419D01*
X291866Y234215D01*
X291677Y233995D01*
X291505Y233775D01*
X291347Y233539D01*
X291222Y233303D01*
X291112Y233083D01*
X291033Y232863D01*
X290954Y232643D01*
X290907Y232438D01*
X290860Y232250D01*
X290844Y232077D01*
X290813Y231935D01*
Y231809D01*
X290797Y231731D01*
Y231668D01*
Y231652D01*
X290813Y231401D01*
X290828Y231165D01*
X290923Y230725D01*
X291049Y230331D01*
X291127Y230158D01*
X291206Y230001D01*
X291285Y229860D01*
X291363Y229734D01*
X291426Y229624D01*
X291489Y229545D01*
X291536Y229467D01*
X291583Y229419D01*
X291599Y229388D01*
X291615Y229372D01*
X291788Y229199D01*
X291961Y229042D01*
X292369Y228775D01*
X292810Y228539D01*
X293234Y228350D01*
X293438Y228272D01*
X293627Y228209D01*
X293800Y228162D01*
X293942Y228114D01*
X294067Y228083D01*
X294162Y228052D01*
X294225Y228036D01*
X294240D01*
X294901Y229750D01*
X294476Y229844D01*
X294130Y229970D01*
X293832Y230080D01*
X293596Y230206D01*
X293407Y230316D01*
X293281Y230410D01*
X293203Y230473D01*
X293171Y230489D01*
X292998Y230677D01*
X292857Y230882D01*
X292762Y231086D01*
X292700Y231275D01*
X292668Y231432D01*
X292652Y231574D01*
X292637Y231652D01*
Y231668D01*
Y231684D01*
X292652Y231856D01*
X292668Y232014D01*
X292762Y232328D01*
X292904Y232580D01*
X293061Y232800D01*
X293203Y232988D01*
X293344Y233114D01*
X293438Y233193D01*
X293454Y233224D01*
X293470D01*
X293643Y233319D01*
X293832Y233413D01*
X294052Y233492D01*
X294272Y233554D01*
X294743Y233665D01*
X295215Y233727D01*
X295435Y233759D01*
X295640Y233775D01*
X295828Y233790D01*
X295986D01*
X296127Y233806D01*
X296662D01*
X296992Y233775D01*
X297290Y233743D01*
X297558Y233712D01*
X297809Y233665D01*
X298045Y233617D01*
X298250Y233570D01*
X298423Y233507D01*
X298580Y233444D01*
X298721Y233397D01*
X298831Y233350D01*
X298926Y233303D01*
X298988Y233256D01*
X299051Y233240D01*
X299067Y233209D01*
X299083D01*
X299240Y233083D01*
X299366Y232957D01*
X299476Y232831D01*
X299570Y232705D01*
X299727Y232438D01*
X299822Y232187D01*
X299885Y231966D01*
X299916Y231794D01*
X299932Y231731D01*
Y231684D01*
Y231652D01*
Y231636D01*
X299916Y231385D01*
X299853Y231165D01*
X299790Y230976D01*
X299696Y230803D01*
X299617Y230662D01*
X299539Y230551D01*
X299476Y230489D01*
X299460Y230473D01*
X299272Y230300D01*
X299067Y230158D01*
X298847Y230033D01*
X298627Y229938D01*
X298438Y229875D01*
X298281Y229828D01*
X298218Y229813D01*
X298171D01*
X298155Y229797D01*
X298139D01*
X298643Y228052D01*
X298894Y228114D01*
X299130Y228193D01*
X299350Y228272D01*
X299570Y228350D01*
X299759Y228445D01*
X299932Y228523D01*
X300073Y228618D01*
X300215Y228696D01*
X300341Y228775D01*
X300451Y228853D01*
X300545Y228916D01*
X300624Y228979D01*
X300671Y229026D01*
X300718Y229058D01*
X300749Y229074D01*
Y229089D01*
X300922Y229278D01*
X301080Y229482D01*
X301221Y229687D01*
X301347Y229891D01*
X301441Y230096D01*
X301520Y230300D01*
X301646Y230693D01*
X301693Y230866D01*
X301724Y231023D01*
X301740Y231165D01*
X301756Y231290D01*
X301771Y231401D01*
Y231479D01*
Y231526D01*
Y231542D01*
X301756Y231872D01*
X301709Y232187D01*
X301646Y232470D01*
X301567Y232753D01*
X301457Y233004D01*
X301347Y233240D01*
X301221Y233460D01*
X301111Y233649D01*
X300985Y233822D01*
X300860Y233979D01*
X300749Y234105D01*
X300639Y234215D01*
X300561Y234293D01*
X300498Y234356D01*
X300451Y234388D01*
X300435Y234403D01*
X300136Y234624D01*
X299806Y234812D01*
X299476Y234970D01*
X299130Y235111D01*
X298768Y235237D01*
X298423Y235331D01*
X298077Y235410D01*
X297731Y235473D01*
X297416Y235520D01*
X297133Y235567D01*
X296866Y235599D01*
X296630Y235614D01*
X296457D01*
X296316Y235630D01*
D02*
G37*
G36*
X301849Y263331D02*
X291220D01*
Y260029D01*
X291236Y259652D01*
X291267Y259306D01*
X291314Y259007D01*
X291377Y258756D01*
X291424Y258552D01*
X291472Y258410D01*
X291503Y258316D01*
X291519Y258284D01*
X291644Y258033D01*
X291786Y257812D01*
X291928Y257624D01*
X292069Y257451D01*
X292195Y257325D01*
X292305Y257215D01*
X292368Y257152D01*
X292399Y257136D01*
X292635Y256964D01*
X292902Y256806D01*
X293170Y256665D01*
X293437Y256555D01*
X293657Y256460D01*
X293846Y256397D01*
X293924Y256366D01*
X293971Y256350D01*
X294003Y256335D01*
X294019D01*
X294412Y256225D01*
X294820Y256146D01*
X295229Y256099D01*
X295607Y256052D01*
X295779D01*
X295937Y256036D01*
X296078D01*
X296188Y256020D01*
X296424D01*
X296975Y256036D01*
X297462Y256067D01*
X297698Y256083D01*
X297902Y256115D01*
X298091Y256146D01*
X298264Y256162D01*
X298421Y256193D01*
X298562Y256225D01*
X298688Y256256D01*
X298783Y256272D01*
X298861Y256287D01*
X298924Y256303D01*
X298955Y256319D01*
X298971D01*
X299349Y256445D01*
X299679Y256570D01*
X299962Y256712D01*
X300198Y256854D01*
X300402Y256964D01*
X300543Y257058D01*
X300622Y257121D01*
X300654Y257152D01*
X300874Y257357D01*
X301062Y257545D01*
X301220Y257750D01*
X301345Y257923D01*
X301440Y258080D01*
X301518Y258190D01*
X301550Y258269D01*
X301565Y258300D01*
X301660Y258552D01*
X301723Y258850D01*
X301786Y259149D01*
X301817Y259448D01*
X301833Y259715D01*
Y259825D01*
X301849Y259919D01*
Y260014D01*
Y260077D01*
Y260108D01*
Y260124D01*
Y263331D01*
D02*
G37*
G36*
X294473Y243665D02*
X293295D01*
X293234Y243648D01*
X292983Y243538D01*
X292747Y243428D01*
X292542Y243318D01*
X292338Y243193D01*
X292149Y243051D01*
X291976Y242910D01*
X291693Y242611D01*
X291442Y242296D01*
X291253Y241982D01*
X291096Y241667D01*
X290986Y241369D01*
X290907Y241086D01*
X290860Y240834D01*
X290828Y240630D01*
X290797Y240473D01*
Y240410D01*
Y240362D01*
Y240347D01*
Y240331D01*
X290813Y240001D01*
X290844Y239702D01*
X290876Y239419D01*
X290939Y239152D01*
X291017Y238916D01*
X291096Y238696D01*
X291174Y238491D01*
X291269Y238319D01*
X291347Y238177D01*
X291426Y238036D01*
X291505Y237925D01*
X291583Y237831D01*
X291646Y237768D01*
X291677Y237721D01*
X291709Y237690D01*
X291725Y237674D01*
X291913Y237517D01*
X292102Y237391D01*
X292291Y237265D01*
X292479Y237171D01*
X292872Y237013D01*
X293250Y236919D01*
X293407Y236888D01*
X293564Y236856D01*
X293706Y236840D01*
X293816Y236825D01*
X293926Y236809D01*
X294052D01*
X294398Y236825D01*
X294712Y236856D01*
X294995Y236903D01*
X295231Y236966D01*
X295420Y237029D01*
X295561Y237076D01*
X295655Y237108D01*
X295687Y237124D01*
X295923Y237249D01*
X296143Y237391D01*
X296331Y237548D01*
X296489Y237690D01*
X296614Y237831D01*
X296693Y237941D01*
X296756Y238004D01*
X296772Y238036D01*
X296850Y238146D01*
X296929Y238287D01*
X297086Y238586D01*
X297212Y238900D01*
X297338Y239215D01*
X297448Y239498D01*
X297479Y239623D01*
X297526Y239734D01*
X297558Y239828D01*
X297574Y239891D01*
X297589Y239938D01*
Y239954D01*
X297652Y240174D01*
X297715Y240378D01*
X297778Y240567D01*
X297841Y240724D01*
X297904Y240881D01*
X297951Y241007D01*
X298014Y241117D01*
X298061Y241227D01*
X298139Y241384D01*
X298202Y241479D01*
X298234Y241542D01*
X298250Y241557D01*
X298360Y241667D01*
X298485Y241762D01*
X298596Y241825D01*
X298706Y241856D01*
X298816Y241887D01*
X298894Y241903D01*
X298957D01*
X299114Y241887D01*
X299256Y241840D01*
X299382Y241777D01*
X299492Y241715D01*
X299586Y241652D01*
X299649Y241589D01*
X299680Y241542D01*
X299696Y241526D01*
X299790Y241369D01*
X299869Y241180D01*
X299916Y241007D01*
X299963Y240834D01*
X299979Y240677D01*
X299995Y240535D01*
Y240457D01*
Y240425D01*
X299979Y240174D01*
X299948Y239954D01*
X299885Y239765D01*
X299822Y239608D01*
X299759Y239482D01*
X299696Y239388D01*
X299665Y239340D01*
X299649Y239325D01*
X299492Y239183D01*
X299319Y239073D01*
X299114Y238995D01*
X298926Y238916D01*
X298737Y238869D01*
X298596Y238837D01*
X298533Y238822D01*
X298485Y238806D01*
X298454D01*
X298548Y237045D01*
X298831Y237061D01*
X299099Y237108D01*
X299334Y237155D01*
X299570Y237218D01*
X299775Y237281D01*
X299979Y237359D01*
X300152Y237454D01*
X300309Y237532D01*
X300451Y237611D01*
X300576Y237690D01*
X300687Y237768D01*
X300765Y237831D01*
X300828Y237894D01*
X300891Y237941D01*
X300907Y237957D01*
X300922Y237973D01*
X301080Y238146D01*
X301205Y238319D01*
X301315Y238523D01*
X301410Y238711D01*
X301567Y239120D01*
X301661Y239498D01*
X301709Y239686D01*
X301724Y239844D01*
X301740Y240001D01*
X301756Y240127D01*
X301771Y240237D01*
Y240315D01*
Y240362D01*
Y240378D01*
X301756Y240740D01*
X301709Y241086D01*
X301661Y241369D01*
X301598Y241620D01*
X301520Y241825D01*
X301473Y241982D01*
X301425Y242076D01*
X301410Y242092D01*
Y242108D01*
X301268Y242359D01*
X301095Y242564D01*
X300922Y242752D01*
X300749Y242910D01*
X300592Y243035D01*
X300466Y243114D01*
X300388Y243177D01*
X300372Y243193D01*
X300356D01*
X300089Y243318D01*
X299822Y243413D01*
X299555Y243491D01*
X299319Y243538D01*
X299114Y243570D01*
X298941Y243585D01*
X298800D01*
X298533Y243570D01*
X298265Y243538D01*
X298029Y243491D01*
X297825Y243428D01*
X297652Y243381D01*
X297511Y243334D01*
X297432Y243302D01*
X297400Y243287D01*
X297165Y243161D01*
X296960Y243020D01*
X296787Y242878D01*
X296646Y242752D01*
X296520Y242626D01*
X296441Y242532D01*
X296379Y242469D01*
X296363Y242453D01*
X296221Y242233D01*
X296080Y241982D01*
X295954Y241699D01*
X295844Y241432D01*
X295750Y241180D01*
X295718Y241086D01*
X295687Y240991D01*
X295655Y240913D01*
X295640Y240850D01*
X295624Y240818D01*
Y240803D01*
X295561Y240583D01*
X295498Y240378D01*
X295435Y240189D01*
X295372Y240032D01*
X295325Y239875D01*
X295278Y239749D01*
X295247Y239639D01*
X295215Y239545D01*
X295152Y239403D01*
X295105Y239293D01*
X295089Y239246D01*
X295074Y239230D01*
X295011Y239120D01*
X294948Y239010D01*
X294869Y238932D01*
X294806Y238869D01*
X294712Y238774D01*
X294681Y238743D01*
X294665D01*
X294571Y238680D01*
X294460Y238649D01*
X294272Y238586D01*
X294177D01*
X294114Y238570D01*
X294052D01*
X293832Y238586D01*
X293627Y238649D01*
X293454Y238711D01*
X293297Y238806D01*
X293187Y238885D01*
X293093Y238963D01*
X293030Y239026D01*
X293014Y239042D01*
X292872Y239230D01*
X292778Y239435D01*
X292700Y239639D01*
X292652Y239828D01*
X292621Y240016D01*
X292605Y240158D01*
Y240252D01*
Y240268D01*
Y240284D01*
X292621Y240567D01*
X292700Y240834D01*
X292794Y241054D01*
X292920Y241259D01*
X293077Y241447D01*
X293250Y241604D01*
X293438Y241730D01*
X293627Y241840D01*
X293816Y241935D01*
X294004Y242013D01*
X294177Y242076D01*
X294335Y242123D01*
X294460Y242155D01*
X294555Y242171D01*
X294633Y242186D01*
X294649D01*
X294473Y243665D01*
D02*
G37*
G36*
X291220Y255423D02*
Y253552D01*
X293626Y252844D01*
Y249322D01*
X291220Y248568D01*
Y246900D01*
X291932D01*
X301849Y250171D01*
Y252042D01*
X291220Y255423D01*
D02*
G37*
G36*
X294695Y271900D02*
X294364Y271853D01*
X294050Y271806D01*
X293767Y271727D01*
X293484Y271648D01*
X293232Y271538D01*
X292997Y271428D01*
X292792Y271318D01*
X292588Y271192D01*
X292399Y271051D01*
X292226Y270910D01*
X291943Y270611D01*
X291692Y270296D01*
X291503Y269982D01*
X291346Y269667D01*
X291236Y269369D01*
X291157Y269086D01*
X291110Y268834D01*
X291078Y268630D01*
X291047Y268472D01*
Y268410D01*
Y268362D01*
Y268347D01*
Y268331D01*
X291063Y268001D01*
X291094Y267702D01*
X291126Y267419D01*
X291189Y267152D01*
X291267Y266916D01*
X291346Y266696D01*
X291424Y266491D01*
X291519Y266318D01*
X291597Y266177D01*
X291676Y266035D01*
X291755Y265925D01*
X291833Y265831D01*
X291896Y265768D01*
X291928Y265721D01*
X291959Y265690D01*
X291975Y265674D01*
X292163Y265517D01*
X292352Y265391D01*
X292541Y265265D01*
X292729Y265171D01*
X293122Y265014D01*
X293500Y264919D01*
X293657Y264888D01*
X293814Y264856D01*
X293956Y264841D01*
X294066Y264825D01*
X294176Y264809D01*
X294302D01*
X294648Y264825D01*
X294962Y264856D01*
X295245Y264903D01*
X295481Y264966D01*
X295669Y265029D01*
X295811Y265076D01*
X295905Y265108D01*
X295937Y265124D01*
X296173Y265249D01*
X296393Y265391D01*
X296581Y265548D01*
X296739Y265690D01*
X296864Y265831D01*
X296943Y265941D01*
X297006Y266004D01*
X297022Y266035D01*
X297100Y266145D01*
X297179Y266287D01*
X297336Y266586D01*
X297462Y266900D01*
X297588Y267215D01*
X297698Y267498D01*
X297729Y267623D01*
X297776Y267733D01*
X297808Y267828D01*
X297824Y267891D01*
X297839Y267938D01*
Y267954D01*
X297902Y268174D01*
X297965Y268378D01*
X298028Y268567D01*
X298091Y268724D01*
X298154Y268881D01*
X298201Y269007D01*
X298264Y269117D01*
X298311Y269227D01*
X298389Y269384D01*
X298452Y269479D01*
X298484Y269542D01*
X298500Y269557D01*
X298610Y269667D01*
X298735Y269762D01*
X298846Y269825D01*
X298955Y269856D01*
X299066Y269888D01*
X299144Y269903D01*
X299207D01*
X299364Y269888D01*
X299506Y269840D01*
X299632Y269777D01*
X299742Y269715D01*
X299836Y269652D01*
X299899Y269589D01*
X299930Y269542D01*
X299946Y269526D01*
X300040Y269369D01*
X300119Y269180D01*
X300166Y269007D01*
X300213Y268834D01*
X300229Y268677D01*
X300245Y268535D01*
Y268457D01*
Y268425D01*
X300229Y268174D01*
X300198Y267954D01*
X300135Y267765D01*
X300072Y267608D01*
X300009Y267482D01*
X299946Y267388D01*
X299915Y267340D01*
X299899Y267325D01*
X299742Y267183D01*
X299569Y267073D01*
X299364Y266994D01*
X299176Y266916D01*
X298987Y266869D01*
X298846Y266837D01*
X298783Y266822D01*
X298735Y266806D01*
X298704D01*
X298798Y265045D01*
X299081Y265061D01*
X299349Y265108D01*
X299584Y265155D01*
X299820Y265218D01*
X300025Y265281D01*
X300229Y265359D01*
X300402Y265454D01*
X300559Y265532D01*
X300701Y265611D01*
X300826Y265690D01*
X300937Y265768D01*
X301015Y265831D01*
X301078Y265894D01*
X301141Y265941D01*
X301157Y265957D01*
X301172Y265973D01*
X301330Y266145D01*
X301455Y266318D01*
X301565Y266523D01*
X301660Y266712D01*
X301817Y267120D01*
X301911Y267498D01*
X301959Y267686D01*
X301974Y267844D01*
X301990Y268001D01*
X302006Y268127D01*
X302021Y268237D01*
Y268315D01*
Y268362D01*
Y268378D01*
X302006Y268740D01*
X301959Y269086D01*
X301911Y269369D01*
X301849Y269620D01*
X301770Y269825D01*
X301723Y269982D01*
X301675Y270076D01*
X301660Y270092D01*
Y270108D01*
X301518Y270359D01*
X301345Y270564D01*
X301172Y270752D01*
X300999Y270910D01*
X300842Y271035D01*
X300716Y271114D01*
X300638Y271177D01*
X300622Y271192D01*
X300606D01*
X300339Y271318D01*
X300072Y271413D01*
X299804Y271491D01*
X299569Y271538D01*
X299364Y271570D01*
X299191Y271586D01*
X299050D01*
X298783Y271570D01*
X298515Y271538D01*
X298279Y271491D01*
X298075Y271428D01*
X297902Y271381D01*
X297761Y271334D01*
X297682Y271303D01*
X297651Y271287D01*
X297415Y271161D01*
X297210Y271019D01*
X297037Y270878D01*
X296896Y270752D01*
X296770Y270627D01*
X296691Y270532D01*
X296629Y270469D01*
X296613Y270453D01*
X296471Y270233D01*
X296330Y269982D01*
X296204Y269699D01*
X296094Y269431D01*
X296000Y269180D01*
X295968Y269086D01*
X295937Y268991D01*
X295905Y268913D01*
X295890Y268850D01*
X295874Y268818D01*
Y268803D01*
X295811Y268582D01*
X295748Y268378D01*
X295685Y268190D01*
X295622Y268032D01*
X295575Y267875D01*
X295528Y267749D01*
X295497Y267639D01*
X295465Y267545D01*
X295402Y267403D01*
X295355Y267293D01*
X295339Y267246D01*
X295324Y267230D01*
X295261Y267120D01*
X295198Y267010D01*
X295119Y266932D01*
X295056Y266869D01*
X294962Y266774D01*
X294930Y266743D01*
X294915D01*
X294820Y266680D01*
X294710Y266649D01*
X294522Y266586D01*
X294427D01*
X294364Y266570D01*
X294302D01*
X294081Y266586D01*
X293877Y266649D01*
X293704Y266712D01*
X293547Y266806D01*
X293437Y266884D01*
X293342Y266963D01*
X293280Y267026D01*
X293264Y267042D01*
X293122Y267230D01*
X293028Y267435D01*
X292950Y267639D01*
X292902Y267828D01*
X292871Y268016D01*
X292855Y268158D01*
Y268252D01*
Y268268D01*
Y268284D01*
X292871Y268567D01*
X292950Y268834D01*
X293044Y269054D01*
X293170Y269259D01*
X293327Y269447D01*
X293500Y269604D01*
X293688Y269730D01*
X293877Y269840D01*
X294066Y269935D01*
X294254Y270013D01*
X294427Y270076D01*
X294585Y270123D01*
X294710Y270155D01*
X294805Y270170D01*
X294883Y270186D01*
X294899D01*
X294695Y271900D01*
D02*
G37*
%LPD*%
G36*
X300056Y260784D02*
Y260595D01*
Y260422D01*
X300040Y260108D01*
X300025Y259872D01*
X300009Y259668D01*
X299993Y259526D01*
X299977Y259432D01*
X299962Y259369D01*
Y259353D01*
X299899Y259180D01*
X299836Y259023D01*
X299742Y258882D01*
X299663Y258756D01*
X299569Y258662D01*
X299506Y258583D01*
X299459Y258536D01*
X299443Y258520D01*
X299286Y258394D01*
X299113Y258300D01*
X298924Y258206D01*
X298751Y258143D01*
X298594Y258080D01*
X298468Y258048D01*
X298389Y258017D01*
X298358D01*
X298091Y257954D01*
X297776Y257923D01*
X297478Y257891D01*
X297179Y257860D01*
X296912D01*
X296801Y257844D01*
X296094D01*
X295732Y257875D01*
X295418Y257891D01*
X295151Y257923D01*
X294946Y257954D01*
X294789Y257985D01*
X294695Y258001D01*
X294679Y258017D01*
X294663D01*
X294427Y258080D01*
X294207Y258143D01*
X294034Y258221D01*
X293893Y258284D01*
X293783Y258331D01*
X293704Y258379D01*
X293657Y258410D01*
X293641Y258426D01*
X293437Y258614D01*
X293295Y258819D01*
X293232Y258913D01*
X293201Y258976D01*
X293185Y259023D01*
X293170Y259039D01*
X293122Y259196D01*
X293075Y259385D01*
X293044Y259589D01*
X293028Y259794D01*
Y259982D01*
X293012Y260124D01*
Y260187D01*
Y260234D01*
Y260250D01*
Y260265D01*
Y261570D01*
X300056D01*
Y260784D01*
D02*
G37*
G36*
X299364Y251115D02*
X295418Y249904D01*
Y252294D01*
X299364Y251115D01*
D02*
G37*
%LPC*%
G36*
X30970Y255673D02*
Y253802D01*
X33375Y253094D01*
Y249572D01*
X30970Y248818D01*
Y246915D01*
X41599Y250421D01*
Y252292D01*
X30970Y255673D01*
D02*
G37*
G36*
X33945Y243400D02*
X33614Y243353D01*
X33300Y243306D01*
X33017Y243227D01*
X32734Y243148D01*
X32483Y243038D01*
X32247Y242928D01*
X32042Y242818D01*
X31838Y242693D01*
X31649Y242551D01*
X31476Y242409D01*
X31193Y242111D01*
X30942Y241796D01*
X30753Y241482D01*
X30596Y241167D01*
X30486Y240869D01*
X30407Y240586D01*
X30360Y240334D01*
X30329Y240130D01*
X30297Y239972D01*
Y239910D01*
Y239862D01*
Y239847D01*
Y239831D01*
X30313Y239501D01*
X30344Y239202D01*
X30376Y238919D01*
X30438Y238652D01*
X30517Y238416D01*
X30596Y238196D01*
X30674Y237991D01*
X30769Y237819D01*
X30847Y237677D01*
X30926Y237535D01*
X31005Y237425D01*
X31083Y237331D01*
X31146Y237268D01*
X31177Y237221D01*
X31209Y237190D01*
X31225Y237174D01*
X31413Y237017D01*
X31602Y236891D01*
X31791Y236765D01*
X31979Y236671D01*
X32372Y236514D01*
X32750Y236419D01*
X32907Y236388D01*
X33064Y236356D01*
X33206Y236341D01*
X33316Y236325D01*
X33426Y236309D01*
X33552D01*
X33898Y236325D01*
X34212Y236356D01*
X34495Y236403D01*
X34731Y236466D01*
X34920Y236529D01*
X35061Y236576D01*
X35155Y236608D01*
X35187Y236624D01*
X35423Y236749D01*
X35643Y236891D01*
X35831Y237048D01*
X35989Y237190D01*
X36114Y237331D01*
X36193Y237441D01*
X36256Y237504D01*
X36272Y237535D01*
X36350Y237645D01*
X36429Y237787D01*
X36586Y238086D01*
X36712Y238400D01*
X36838Y238715D01*
X36948Y238998D01*
X36979Y239123D01*
X37026Y239233D01*
X37058Y239328D01*
X37074Y239391D01*
X37089Y239438D01*
Y239454D01*
X37152Y239674D01*
X37215Y239878D01*
X37278Y240067D01*
X37341Y240224D01*
X37404Y240381D01*
X37451Y240507D01*
X37514Y240617D01*
X37561Y240727D01*
X37640Y240884D01*
X37702Y240979D01*
X37734Y241042D01*
X37750Y241057D01*
X37860Y241167D01*
X37985Y241262D01*
X38096Y241325D01*
X38205Y241356D01*
X38316Y241388D01*
X38394Y241403D01*
X38457D01*
X38614Y241388D01*
X38756Y241340D01*
X38882Y241277D01*
X38992Y241215D01*
X39086Y241152D01*
X39149Y241089D01*
X39180Y241042D01*
X39196Y241026D01*
X39290Y240869D01*
X39369Y240680D01*
X39416Y240507D01*
X39463Y240334D01*
X39479Y240177D01*
X39495Y240035D01*
Y239957D01*
Y239925D01*
X39479Y239674D01*
X39448Y239454D01*
X39385Y239265D01*
X39322Y239108D01*
X39259Y238982D01*
X39196Y238888D01*
X39165Y238840D01*
X39149Y238825D01*
X38992Y238683D01*
X38819Y238573D01*
X38614Y238494D01*
X38426Y238416D01*
X38237Y238369D01*
X38096Y238337D01*
X38033Y238322D01*
X37985Y238306D01*
X37954D01*
X38048Y236545D01*
X38331Y236561D01*
X38599Y236608D01*
X38834Y236655D01*
X39070Y236718D01*
X39275Y236781D01*
X39479Y236859D01*
X39652Y236954D01*
X39809Y237032D01*
X39951Y237111D01*
X40076Y237190D01*
X40187Y237268D01*
X40265Y237331D01*
X40328Y237394D01*
X40391Y237441D01*
X40407Y237457D01*
X40422Y237473D01*
X40580Y237645D01*
X40705Y237819D01*
X40816Y238023D01*
X40910Y238211D01*
X41067Y238620D01*
X41161Y238998D01*
X41209Y239186D01*
X41224Y239344D01*
X41240Y239501D01*
X41256Y239627D01*
X41271Y239737D01*
Y239815D01*
Y239862D01*
Y239878D01*
X41256Y240240D01*
X41209Y240586D01*
X41161Y240869D01*
X41098Y241120D01*
X41020Y241325D01*
X40973Y241482D01*
X40925Y241576D01*
X40910Y241592D01*
Y241608D01*
X40768Y241859D01*
X40595Y242064D01*
X40422Y242252D01*
X40249Y242409D01*
X40092Y242535D01*
X39966Y242614D01*
X39888Y242677D01*
X39872Y242693D01*
X39856D01*
X39589Y242818D01*
X39322Y242913D01*
X39055Y242991D01*
X38819Y243038D01*
X38614Y243070D01*
X38441Y243085D01*
X38300D01*
X38033Y243070D01*
X37765Y243038D01*
X37529Y242991D01*
X37325Y242928D01*
X37152Y242881D01*
X37011Y242834D01*
X36932Y242803D01*
X36900Y242787D01*
X36665Y242661D01*
X36460Y242519D01*
X36287Y242378D01*
X36146Y242252D01*
X36020Y242127D01*
X35942Y242032D01*
X35879Y241969D01*
X35863Y241954D01*
X35721Y241733D01*
X35580Y241482D01*
X35454Y241199D01*
X35344Y240931D01*
X35250Y240680D01*
X35218Y240586D01*
X35187Y240491D01*
X35155Y240413D01*
X35140Y240350D01*
X35124Y240318D01*
Y240303D01*
X35061Y240082D01*
X34998Y239878D01*
X34935Y239690D01*
X34872Y239532D01*
X34825Y239375D01*
X34778Y239249D01*
X34746Y239139D01*
X34715Y239045D01*
X34652Y238903D01*
X34605Y238793D01*
X34589Y238746D01*
X34574Y238730D01*
X34511Y238620D01*
X34448Y238510D01*
X34369Y238432D01*
X34306Y238369D01*
X34212Y238274D01*
X34181Y238243D01*
X34165D01*
X34070Y238180D01*
X33960Y238149D01*
X33772Y238086D01*
X33677D01*
X33614Y238070D01*
X33552D01*
X33331Y238086D01*
X33127Y238149D01*
X32954Y238211D01*
X32797Y238306D01*
X32687Y238384D01*
X32592Y238463D01*
X32530Y238526D01*
X32514Y238542D01*
X32372Y238730D01*
X32278Y238935D01*
X32199Y239139D01*
X32152Y239328D01*
X32121Y239517D01*
X32105Y239658D01*
Y239752D01*
Y239768D01*
Y239784D01*
X32121Y240067D01*
X32199Y240334D01*
X32294Y240554D01*
X32420Y240759D01*
X32577Y240947D01*
X32750Y241105D01*
X32938Y241230D01*
X33127Y241340D01*
X33316Y241435D01*
X33505Y241513D01*
X33677Y241576D01*
X33835Y241623D01*
X33960Y241655D01*
X34055Y241670D01*
X34133Y241686D01*
X34149D01*
X33945Y243400D01*
D02*
G37*
G36*
X41599Y263581D02*
X30970D01*
Y260279D01*
X30986Y259902D01*
X31017Y259556D01*
X31064Y259258D01*
X31127Y259006D01*
X31174Y258801D01*
X31222Y258660D01*
X31253Y258566D01*
X31269Y258534D01*
X31395Y258283D01*
X31536Y258063D01*
X31677Y257874D01*
X31819Y257701D01*
X31945Y257575D01*
X32055Y257465D01*
X32118Y257402D01*
X32149Y257386D01*
X32385Y257213D01*
X32652Y257056D01*
X32920Y256915D01*
X33187Y256805D01*
X33407Y256710D01*
X33596Y256647D01*
X33674Y256616D01*
X33721Y256600D01*
X33753Y256585D01*
X33769D01*
X34162Y256475D01*
X34571Y256396D01*
X34979Y256349D01*
X35357Y256302D01*
X35529D01*
X35687Y256286D01*
X35828D01*
X35938Y256270D01*
X36174D01*
X36725Y256286D01*
X37212Y256317D01*
X37448Y256333D01*
X37652Y256364D01*
X37841Y256396D01*
X38014Y256412D01*
X38171Y256443D01*
X38312Y256475D01*
X38438Y256506D01*
X38533Y256522D01*
X38611Y256537D01*
X38674Y256553D01*
X38705Y256569D01*
X38721D01*
X39099Y256695D01*
X39429Y256821D01*
X39712Y256962D01*
X39948Y257104D01*
X40152Y257213D01*
X40293Y257308D01*
X40372Y257371D01*
X40404Y257402D01*
X40624Y257607D01*
X40812Y257795D01*
X40970Y258000D01*
X41095Y258173D01*
X41190Y258330D01*
X41268Y258440D01*
X41300Y258519D01*
X41315Y258550D01*
X41410Y258801D01*
X41473Y259100D01*
X41536Y259399D01*
X41567Y259698D01*
X41583Y259965D01*
Y260075D01*
X41599Y260169D01*
Y260264D01*
Y260327D01*
Y260358D01*
Y260374D01*
Y263581D01*
D02*
G37*
G36*
X34445Y272150D02*
X34114Y272103D01*
X33800Y272056D01*
X33517Y271977D01*
X33234Y271898D01*
X32982Y271788D01*
X32747Y271678D01*
X32542Y271568D01*
X32338Y271443D01*
X32149Y271301D01*
X31976Y271159D01*
X31693Y270861D01*
X31442Y270546D01*
X31253Y270232D01*
X31096Y269917D01*
X30986Y269619D01*
X30907Y269336D01*
X30860Y269084D01*
X30828Y268880D01*
X30797Y268722D01*
Y268660D01*
Y268612D01*
Y268597D01*
Y268581D01*
X30813Y268251D01*
X30844Y267952D01*
X30876Y267669D01*
X30938Y267402D01*
X31017Y267166D01*
X31096Y266946D01*
X31174Y266741D01*
X31269Y266569D01*
X31347Y266427D01*
X31426Y266285D01*
X31505Y266175D01*
X31583Y266081D01*
X31646Y266018D01*
X31677Y265971D01*
X31709Y265940D01*
X31725Y265924D01*
X31913Y265767D01*
X32102Y265641D01*
X32291Y265515D01*
X32479Y265421D01*
X32872Y265264D01*
X33250Y265169D01*
X33407Y265138D01*
X33564Y265106D01*
X33706Y265091D01*
X33816Y265075D01*
X33926Y265059D01*
X34052D01*
X34397Y265075D01*
X34712Y265106D01*
X34995Y265153D01*
X35231Y265216D01*
X35419Y265279D01*
X35561Y265326D01*
X35655Y265358D01*
X35687Y265374D01*
X35923Y265499D01*
X36143Y265641D01*
X36331Y265798D01*
X36489Y265940D01*
X36614Y266081D01*
X36693Y266191D01*
X36756Y266254D01*
X36772Y266285D01*
X36850Y266395D01*
X36929Y266537D01*
X37086Y266836D01*
X37212Y267150D01*
X37338Y267465D01*
X37448Y267748D01*
X37479Y267873D01*
X37526Y267983D01*
X37558Y268078D01*
X37573Y268141D01*
X37589Y268188D01*
Y268204D01*
X37652Y268424D01*
X37715Y268628D01*
X37778Y268817D01*
X37841Y268974D01*
X37904Y269131D01*
X37951Y269257D01*
X38014Y269367D01*
X38061Y269477D01*
X38140Y269634D01*
X38202Y269729D01*
X38234Y269792D01*
X38250Y269807D01*
X38360Y269917D01*
X38485Y270012D01*
X38595Y270075D01*
X38705Y270106D01*
X38816Y270138D01*
X38894Y270153D01*
X38957D01*
X39114Y270138D01*
X39256Y270090D01*
X39382Y270028D01*
X39492Y269965D01*
X39586Y269902D01*
X39649Y269839D01*
X39680Y269792D01*
X39696Y269776D01*
X39790Y269619D01*
X39869Y269430D01*
X39916Y269257D01*
X39963Y269084D01*
X39979Y268927D01*
X39995Y268785D01*
Y268707D01*
Y268675D01*
X39979Y268424D01*
X39948Y268204D01*
X39885Y268015D01*
X39822Y267858D01*
X39759Y267732D01*
X39696Y267638D01*
X39665Y267590D01*
X39649Y267575D01*
X39492Y267433D01*
X39319Y267323D01*
X39114Y267245D01*
X38926Y267166D01*
X38737Y267119D01*
X38595Y267087D01*
X38533Y267072D01*
X38485Y267056D01*
X38454D01*
X38548Y265295D01*
X38831Y265311D01*
X39099Y265358D01*
X39334Y265405D01*
X39570Y265468D01*
X39775Y265531D01*
X39979Y265609D01*
X40152Y265704D01*
X40309Y265782D01*
X40451Y265861D01*
X40577Y265940D01*
X40687Y266018D01*
X40765Y266081D01*
X40828Y266144D01*
X40891Y266191D01*
X40907Y266207D01*
X40922Y266223D01*
X41080Y266395D01*
X41205Y266569D01*
X41315Y266773D01*
X41410Y266961D01*
X41567Y267370D01*
X41661Y267748D01*
X41708Y267936D01*
X41724Y268094D01*
X41740Y268251D01*
X41756Y268377D01*
X41771Y268487D01*
Y268565D01*
Y268612D01*
Y268628D01*
X41756Y268990D01*
X41708Y269336D01*
X41661Y269619D01*
X41599Y269870D01*
X41520Y270075D01*
X41473Y270232D01*
X41425Y270326D01*
X41410Y270342D01*
Y270358D01*
X41268Y270609D01*
X41095Y270814D01*
X40922Y271002D01*
X40749Y271159D01*
X40592Y271285D01*
X40466Y271364D01*
X40388Y271427D01*
X40372Y271443D01*
X40356D01*
X40089Y271568D01*
X39822Y271663D01*
X39555Y271741D01*
X39319Y271788D01*
X39114Y271820D01*
X38941Y271835D01*
X38800D01*
X38533Y271820D01*
X38265Y271788D01*
X38029Y271741D01*
X37825Y271678D01*
X37652Y271631D01*
X37511Y271584D01*
X37432Y271553D01*
X37401Y271537D01*
X37165Y271411D01*
X36960Y271269D01*
X36787Y271128D01*
X36646Y271002D01*
X36520Y270877D01*
X36442Y270782D01*
X36379Y270719D01*
X36363Y270704D01*
X36221Y270483D01*
X36080Y270232D01*
X35954Y269949D01*
X35844Y269682D01*
X35750Y269430D01*
X35718Y269336D01*
X35687Y269241D01*
X35655Y269163D01*
X35640Y269100D01*
X35624Y269068D01*
Y269053D01*
X35561Y268832D01*
X35498Y268628D01*
X35435Y268440D01*
X35372Y268282D01*
X35325Y268125D01*
X35278Y267999D01*
X35247Y267889D01*
X35215Y267795D01*
X35152Y267653D01*
X35105Y267543D01*
X35089Y267496D01*
X35074Y267480D01*
X35011Y267370D01*
X34948Y267260D01*
X34869Y267182D01*
X34806Y267119D01*
X34712Y267024D01*
X34681Y266993D01*
X34665D01*
X34571Y266930D01*
X34460Y266899D01*
X34272Y266836D01*
X34177D01*
X34114Y266820D01*
X34052D01*
X33832Y266836D01*
X33627Y266899D01*
X33454Y266961D01*
X33297Y267056D01*
X33187Y267134D01*
X33093Y267213D01*
X33030Y267276D01*
X33014Y267292D01*
X32872Y267480D01*
X32778Y267685D01*
X32699Y267889D01*
X32652Y268078D01*
X32621Y268267D01*
X32605Y268408D01*
Y268502D01*
Y268518D01*
Y268534D01*
X32621Y268817D01*
X32699Y269084D01*
X32794Y269304D01*
X32920Y269509D01*
X33077Y269697D01*
X33250Y269855D01*
X33438Y269980D01*
X33627Y270090D01*
X33816Y270185D01*
X34004Y270263D01*
X34177Y270326D01*
X34335Y270373D01*
X34460Y270405D01*
X34555Y270420D01*
X34633Y270436D01*
X34649D01*
X34445Y272150D01*
D02*
G37*
G36*
X41020Y225995D02*
X30470D01*
Y219863D01*
X32262D01*
Y224234D01*
X41020D01*
Y225995D01*
D02*
G37*
G36*
X35816Y235130D02*
X35690D01*
X35218Y235114D01*
X34778Y235083D01*
X34353Y235020D01*
X33960Y234941D01*
X33599Y234847D01*
X33269Y234753D01*
X32954Y234643D01*
X32687Y234517D01*
X32435Y234407D01*
X32215Y234297D01*
X32027Y234202D01*
X31885Y234108D01*
X31759Y234029D01*
X31665Y233966D01*
X31618Y233935D01*
X31602Y233919D01*
X31366Y233715D01*
X31177Y233495D01*
X31005Y233275D01*
X30847Y233039D01*
X30722Y232803D01*
X30612Y232583D01*
X30533Y232363D01*
X30454Y232143D01*
X30407Y231938D01*
X30360Y231749D01*
X30344Y231577D01*
X30313Y231435D01*
Y231309D01*
X30297Y231231D01*
Y231168D01*
Y231152D01*
X30313Y230900D01*
X30329Y230665D01*
X30423Y230224D01*
X30549Y229831D01*
X30627Y229658D01*
X30706Y229501D01*
X30784Y229360D01*
X30863Y229234D01*
X30926Y229124D01*
X30989Y229045D01*
X31036Y228967D01*
X31083Y228920D01*
X31099Y228888D01*
X31115Y228872D01*
X31288Y228699D01*
X31460Y228542D01*
X31869Y228275D01*
X32310Y228039D01*
X32734Y227850D01*
X32938Y227772D01*
X33127Y227709D01*
X33300Y227662D01*
X33442Y227614D01*
X33567Y227583D01*
X33662Y227552D01*
X33725Y227536D01*
X33740D01*
X34401Y229250D01*
X33976Y229344D01*
X33630Y229470D01*
X33331Y229580D01*
X33096Y229706D01*
X32907Y229816D01*
X32781Y229910D01*
X32703Y229973D01*
X32671Y229989D01*
X32498Y230177D01*
X32357Y230382D01*
X32262Y230586D01*
X32199Y230775D01*
X32168Y230932D01*
X32152Y231073D01*
X32137Y231152D01*
Y231168D01*
Y231183D01*
X32152Y231357D01*
X32168Y231514D01*
X32262Y231828D01*
X32404Y232080D01*
X32561Y232300D01*
X32703Y232488D01*
X32844Y232614D01*
X32938Y232693D01*
X32954Y232724D01*
X32970D01*
X33143Y232819D01*
X33331Y232913D01*
X33552Y232992D01*
X33772Y233055D01*
X34243Y233165D01*
X34715Y233228D01*
X34935Y233259D01*
X35140Y233275D01*
X35328Y233290D01*
X35485D01*
X35627Y233306D01*
X36162D01*
X36492Y233275D01*
X36790Y233243D01*
X37058Y233212D01*
X37309Y233165D01*
X37545Y233117D01*
X37750Y233070D01*
X37922Y233007D01*
X38080Y232945D01*
X38221Y232897D01*
X38331Y232850D01*
X38426Y232803D01*
X38489Y232756D01*
X38551Y232740D01*
X38567Y232709D01*
X38583D01*
X38740Y232583D01*
X38866Y232457D01*
X38976Y232331D01*
X39070Y232206D01*
X39227Y231938D01*
X39322Y231687D01*
X39385Y231467D01*
X39416Y231294D01*
X39432Y231231D01*
Y231183D01*
Y231152D01*
Y231136D01*
X39416Y230885D01*
X39353Y230665D01*
X39290Y230476D01*
X39196Y230303D01*
X39117Y230162D01*
X39039Y230051D01*
X38976Y229989D01*
X38960Y229973D01*
X38772Y229800D01*
X38567Y229658D01*
X38347Y229533D01*
X38127Y229438D01*
X37938Y229375D01*
X37781Y229328D01*
X37718Y229312D01*
X37671D01*
X37655Y229297D01*
X37640D01*
X38143Y227552D01*
X38394Y227614D01*
X38630Y227693D01*
X38850Y227772D01*
X39070Y227850D01*
X39259Y227945D01*
X39432Y228023D01*
X39573Y228118D01*
X39715Y228196D01*
X39841Y228275D01*
X39951Y228354D01*
X40045Y228416D01*
X40124Y228479D01*
X40171Y228526D01*
X40218Y228558D01*
X40249Y228574D01*
Y228589D01*
X40422Y228778D01*
X40580Y228982D01*
X40721Y229187D01*
X40847Y229391D01*
X40941Y229596D01*
X41020Y229800D01*
X41146Y230193D01*
X41193Y230366D01*
X41224Y230523D01*
X41240Y230665D01*
X41256Y230791D01*
X41271Y230900D01*
Y230979D01*
Y231026D01*
Y231042D01*
X41256Y231372D01*
X41209Y231687D01*
X41146Y231970D01*
X41067Y232253D01*
X40957Y232504D01*
X40847Y232740D01*
X40721Y232960D01*
X40611Y233149D01*
X40485Y233322D01*
X40360Y233479D01*
X40249Y233605D01*
X40139Y233715D01*
X40061Y233794D01*
X39998Y233856D01*
X39951Y233888D01*
X39935Y233904D01*
X39636Y234124D01*
X39306Y234312D01*
X38976Y234470D01*
X38630Y234611D01*
X38268Y234737D01*
X37922Y234831D01*
X37577Y234910D01*
X37231Y234973D01*
X36916Y235020D01*
X36633Y235067D01*
X36366Y235098D01*
X36130Y235114D01*
X35957D01*
X35816Y235130D01*
D02*
G37*
%LPD*%
G36*
X39114Y251365D02*
X35168Y250154D01*
Y252544D01*
X39114Y251365D01*
D02*
G37*
G36*
X39806Y261034D02*
Y260846D01*
Y260672D01*
X39790Y260358D01*
X39775Y260122D01*
X39759Y259918D01*
X39743Y259776D01*
X39727Y259682D01*
X39712Y259619D01*
Y259603D01*
X39649Y259430D01*
X39586Y259273D01*
X39492Y259132D01*
X39413Y259006D01*
X39319Y258912D01*
X39256Y258833D01*
X39209Y258786D01*
X39193Y258770D01*
X39036Y258644D01*
X38863Y258550D01*
X38674Y258456D01*
X38501Y258393D01*
X38344Y258330D01*
X38218Y258298D01*
X38140Y258267D01*
X38108D01*
X37841Y258204D01*
X37526Y258173D01*
X37228Y258141D01*
X36929Y258110D01*
X36662D01*
X36551Y258094D01*
X35844D01*
X35482Y258125D01*
X35168Y258141D01*
X34901Y258173D01*
X34696Y258204D01*
X34539Y258235D01*
X34445Y258251D01*
X34429Y258267D01*
X34413D01*
X34177Y258330D01*
X33957Y258393D01*
X33784Y258471D01*
X33643Y258534D01*
X33533Y258581D01*
X33454Y258629D01*
X33407Y258660D01*
X33391Y258676D01*
X33187Y258864D01*
X33045Y259069D01*
X32982Y259163D01*
X32951Y259226D01*
X32935Y259273D01*
X32920Y259289D01*
X32872Y259446D01*
X32825Y259635D01*
X32794Y259839D01*
X32778Y260044D01*
Y260232D01*
X32762Y260374D01*
Y260437D01*
Y260484D01*
Y260500D01*
Y260515D01*
Y261820D01*
X39806D01*
Y261034D01*
D02*
G37*
%LPC*%
G36*
X37457Y344400D02*
X37284D01*
X36671Y344369D01*
X36105Y344306D01*
X35838Y344274D01*
X35602Y344227D01*
X35366Y344164D01*
X35162Y344117D01*
X34973Y344070D01*
X34800Y344007D01*
X34659Y343960D01*
X34533Y343928D01*
X34438Y343881D01*
X34376Y343866D01*
X34328Y343834D01*
X34313D01*
X33872Y343598D01*
X33495Y343347D01*
X33165Y343079D01*
X32898Y342828D01*
X32693Y342608D01*
X32552Y342419D01*
X32489Y342356D01*
X32457Y342309D01*
X32442Y342277D01*
X32426Y342262D01*
X32222Y341884D01*
X32064Y341491D01*
X31954Y341098D01*
X31876Y340752D01*
X31844Y340595D01*
X31828Y340438D01*
X31813Y340312D01*
Y340202D01*
X31797Y340108D01*
Y340045D01*
Y339998D01*
Y339982D01*
X31813Y339589D01*
X31876Y339212D01*
X31954Y338850D01*
X32033Y338535D01*
X32127Y338268D01*
X32159Y338158D01*
X32190Y338048D01*
X32222Y337985D01*
X32253Y337922D01*
X32269Y337891D01*
Y337875D01*
X32457Y337498D01*
X32662Y337168D01*
X32850Y336900D01*
X33039Y336665D01*
X33196Y336476D01*
X33322Y336350D01*
X33401Y336271D01*
X33432Y336240D01*
X37662D01*
Y340029D01*
X35869D01*
Y338017D01*
X34533D01*
X34376Y338190D01*
X34250Y338363D01*
X34140Y338535D01*
X34045Y338677D01*
X33967Y338819D01*
X33920Y338929D01*
X33888Y338991D01*
X33872Y339023D01*
X33794Y339227D01*
X33731Y339416D01*
X33700Y339605D01*
X33668Y339762D01*
X33652Y339888D01*
X33637Y339982D01*
Y340061D01*
Y340076D01*
X33652Y340281D01*
X33668Y340469D01*
X33762Y340815D01*
X33904Y341130D01*
X34061Y341381D01*
X34218Y341570D01*
X34360Y341712D01*
X34454Y341806D01*
X34470Y341822D01*
X34486Y341837D01*
X34690Y341963D01*
X34894Y342073D01*
X35366Y342262D01*
X35854Y342388D01*
X36325Y342482D01*
X36530Y342513D01*
X36734Y342529D01*
X36923Y342561D01*
X37080D01*
X37206Y342576D01*
X37394D01*
X37724Y342561D01*
X38023Y342545D01*
X38306Y342513D01*
X38574Y342466D01*
X38809Y342419D01*
X39029Y342356D01*
X39218Y342293D01*
X39391Y342230D01*
X39548Y342167D01*
X39690Y342104D01*
X39800Y342042D01*
X39894Y341995D01*
X39957Y341947D01*
X40004Y341916D01*
X40036Y341884D01*
X40051D01*
X40209Y341743D01*
X40350Y341601D01*
X40460Y341460D01*
X40554Y341303D01*
X40712Y341004D01*
X40822Y340705D01*
X40885Y340454D01*
X40900Y340344D01*
X40916Y340249D01*
X40932Y340171D01*
Y340108D01*
Y340076D01*
Y340061D01*
X40916Y339793D01*
X40869Y339557D01*
X40790Y339353D01*
X40712Y339164D01*
X40633Y339023D01*
X40554Y338913D01*
X40507Y338834D01*
X40492Y338819D01*
X40319Y338646D01*
X40114Y338488D01*
X39894Y338363D01*
X39706Y338268D01*
X39517Y338190D01*
X39375Y338142D01*
X39265Y338111D01*
X39250Y338095D01*
X39234D01*
X39627Y336350D01*
X39910Y336413D01*
X40177Y336476D01*
X40413Y336570D01*
X40649Y336665D01*
X40853Y336759D01*
X41042Y336869D01*
X41215Y336963D01*
X41372Y337073D01*
X41514Y337168D01*
X41639Y337262D01*
X41734Y337356D01*
X41828Y337419D01*
X41891Y337482D01*
X41938Y337529D01*
X41954Y337561D01*
X41970Y337576D01*
X42111Y337749D01*
X42237Y337954D01*
X42347Y338158D01*
X42441Y338363D01*
X42583Y338771D01*
X42677Y339180D01*
X42709Y339353D01*
X42724Y339526D01*
X42740Y339683D01*
X42756Y339809D01*
X42771Y339919D01*
Y340013D01*
Y340061D01*
Y340076D01*
X42740Y340548D01*
X42677Y340973D01*
X42567Y341350D01*
X42457Y341680D01*
X42394Y341822D01*
X42347Y341947D01*
X42284Y342057D01*
X42237Y342136D01*
X42205Y342215D01*
X42174Y342262D01*
X42143Y342293D01*
Y342309D01*
X41891Y342639D01*
X41592Y342938D01*
X41294Y343189D01*
X40979Y343410D01*
X40712Y343582D01*
X40602Y343661D01*
X40492Y343708D01*
X40413Y343755D01*
X40350Y343787D01*
X40303Y343818D01*
X40287D01*
X39800Y344007D01*
X39297Y344148D01*
X38794Y344258D01*
X38322Y344321D01*
X38102Y344353D01*
X37913Y344369D01*
X37724Y344384D01*
X37583D01*
X37457Y344400D01*
D02*
G37*
G36*
X35050Y353243D02*
X34547Y353165D01*
X34122Y353055D01*
X33918Y352976D01*
X33745Y352897D01*
X33572Y352819D01*
X33431Y352740D01*
X33289Y352662D01*
X33179Y352583D01*
X33085Y352520D01*
X32990Y352457D01*
X32927Y352410D01*
X32880Y352363D01*
X32865Y352347D01*
X32849Y352331D01*
X32707Y352174D01*
X32582Y352017D01*
X32472Y351860D01*
X32393Y351687D01*
X32236Y351357D01*
X32141Y351058D01*
X32094Y350790D01*
X32078Y350665D01*
X32063Y350570D01*
X32047Y350492D01*
Y350429D01*
Y350397D01*
Y350382D01*
X32063Y350162D01*
X32094Y349957D01*
X32141Y349753D01*
X32189Y349548D01*
X32346Y349202D01*
X32519Y348904D01*
X32692Y348652D01*
X32770Y348558D01*
X32849Y348479D01*
X32896Y348416D01*
X32943Y348354D01*
X32975Y348338D01*
X32990Y348322D01*
X33179Y348165D01*
X33368Y348023D01*
X33572Y347913D01*
X33777Y347819D01*
X34170Y347662D01*
X34547Y347552D01*
X34736Y347520D01*
X34893Y347489D01*
X35034Y347473D01*
X35160Y347457D01*
X35254Y347442D01*
X35396D01*
X35758Y347457D01*
X36088Y347520D01*
X36371Y347583D01*
X36607Y347677D01*
X36795Y347756D01*
X36937Y347835D01*
X37031Y347897D01*
X37063Y347913D01*
X37298Y348102D01*
X37487Y348291D01*
X37629Y348479D01*
X37754Y348668D01*
X37833Y348841D01*
X37880Y348967D01*
X37912Y349061D01*
X37927Y349077D01*
Y349092D01*
X38084Y348872D01*
X38258Y348684D01*
X38430Y348511D01*
X38572Y348385D01*
X38713Y348275D01*
X38808Y348212D01*
X38871Y348165D01*
X38902Y348149D01*
X39122Y348039D01*
X39342Y347960D01*
X39547Y347897D01*
X39751Y347866D01*
X39908Y347835D01*
X40050Y347819D01*
X40349D01*
X40537Y347850D01*
X40883Y347929D01*
X41198Y348039D01*
X41481Y348165D01*
X41716Y348306D01*
X41811Y348369D01*
X41889Y348416D01*
X41952Y348464D01*
X42000Y348495D01*
X42015Y348511D01*
X42031Y348526D01*
X42188Y348668D01*
X42314Y348809D01*
X42424Y348967D01*
X42518Y349124D01*
X42675Y349438D01*
X42770Y349737D01*
X42833Y350020D01*
X42849Y350130D01*
X42864Y350224D01*
X42880Y350319D01*
Y350382D01*
Y350413D01*
Y350429D01*
Y350617D01*
X42849Y350806D01*
X42770Y351152D01*
X42660Y351467D01*
X42550Y351718D01*
X42424Y351922D01*
X42314Y352080D01*
X42235Y352174D01*
X42220Y352190D01*
X42204Y352206D01*
X42078Y352331D01*
X41921Y352441D01*
X41591Y352646D01*
X41245Y352803D01*
X40899Y352929D01*
X40584Y353023D01*
X40459Y353055D01*
X40333Y353086D01*
X40238Y353102D01*
X40160Y353117D01*
X40113Y353133D01*
X40097D01*
X39783Y351592D01*
X40034Y351561D01*
X40238Y351514D01*
X40427Y351451D01*
X40569Y351388D01*
X40679Y351325D01*
X40773Y351278D01*
X40820Y351246D01*
X40836Y351231D01*
X40962Y351105D01*
X41040Y350979D01*
X41103Y350853D01*
X41150Y350743D01*
X41182Y350649D01*
X41198Y350555D01*
Y350508D01*
Y350492D01*
X41182Y350335D01*
X41150Y350193D01*
X41103Y350067D01*
X41040Y349973D01*
X40978Y349894D01*
X40930Y349831D01*
X40899Y349800D01*
X40883Y349784D01*
X40757Y349690D01*
X40616Y349627D01*
X40474Y349564D01*
X40349Y349533D01*
X40223Y349517D01*
X40128Y349501D01*
X40034D01*
X39798Y349517D01*
X39594Y349564D01*
X39421Y349627D01*
X39279Y349690D01*
X39169Y349753D01*
X39075Y349816D01*
X39028Y349863D01*
X39012Y349879D01*
X38902Y350036D01*
X38808Y350193D01*
X38761Y350366D01*
X38713Y350539D01*
X38698Y350680D01*
X38682Y350806D01*
Y350885D01*
Y350916D01*
X37015Y351089D01*
X37063Y350932D01*
X37110Y350790D01*
X37141Y350649D01*
X37157Y350539D01*
X37173Y350460D01*
Y350397D01*
Y350350D01*
Y350335D01*
X37157Y350162D01*
X37110Y350004D01*
X37031Y349863D01*
X36953Y349737D01*
X36858Y349643D01*
X36795Y349564D01*
X36732Y349517D01*
X36717Y349501D01*
X36544Y349391D01*
X36339Y349297D01*
X36135Y349234D01*
X35946Y349202D01*
X35773Y349171D01*
X35632Y349155D01*
X35506D01*
X35207Y349171D01*
X34956Y349218D01*
X34720Y349265D01*
X34547Y349328D01*
X34390Y349407D01*
X34295Y349454D01*
X34217Y349501D01*
X34201Y349517D01*
X34044Y349659D01*
X33934Y349800D01*
X33855Y349957D01*
X33808Y350099D01*
X33777Y350209D01*
X33745Y350303D01*
Y350382D01*
Y350397D01*
X33761Y350570D01*
X33808Y350728D01*
X33871Y350869D01*
X33949Y350979D01*
X34012Y351073D01*
X34075Y351152D01*
X34122Y351199D01*
X34138Y351215D01*
X34295Y351325D01*
X34484Y351419D01*
X34673Y351498D01*
X34861Y351545D01*
X35034Y351592D01*
X35160Y351608D01*
X35254Y351624D01*
X35286D01*
X35050Y353243D01*
D02*
G37*
G36*
X42599Y334573D02*
X31970D01*
Y332938D01*
X38888D01*
X31970Y329432D01*
Y327655D01*
X42599D01*
Y329291D01*
X35492D01*
X42599Y332875D01*
Y334573D01*
D02*
G37*
G36*
Y325832D02*
X31970D01*
Y322530D01*
X31986Y322152D01*
X32017Y321807D01*
X32064Y321508D01*
X32127Y321256D01*
X32174Y321052D01*
X32222Y320910D01*
X32253Y320816D01*
X32269Y320785D01*
X32394Y320533D01*
X32536Y320313D01*
X32678Y320124D01*
X32819Y319951D01*
X32945Y319826D01*
X33055Y319715D01*
X33118Y319653D01*
X33149Y319637D01*
X33385Y319464D01*
X33652Y319307D01*
X33920Y319165D01*
X34187Y319055D01*
X34407Y318961D01*
X34596Y318898D01*
X34674Y318867D01*
X34721Y318851D01*
X34753Y318835D01*
X34769D01*
X35162Y318725D01*
X35570Y318646D01*
X35979Y318599D01*
X36357Y318552D01*
X36530D01*
X36687Y318536D01*
X36828D01*
X36938Y318521D01*
X37174D01*
X37724Y318536D01*
X38212Y318568D01*
X38448Y318584D01*
X38652Y318615D01*
X38841Y318646D01*
X39014Y318662D01*
X39171Y318694D01*
X39312Y318725D01*
X39438Y318757D01*
X39533Y318772D01*
X39611Y318788D01*
X39674Y318804D01*
X39706Y318819D01*
X39721D01*
X40099Y318945D01*
X40429Y319071D01*
X40712Y319212D01*
X40948Y319354D01*
X41152Y319464D01*
X41294Y319558D01*
X41372Y319621D01*
X41403Y319653D01*
X41624Y319857D01*
X41812Y320046D01*
X41970Y320250D01*
X42095Y320423D01*
X42190Y320580D01*
X42268Y320690D01*
X42300Y320769D01*
X42316Y320800D01*
X42410Y321052D01*
X42473Y321351D01*
X42536Y321649D01*
X42567Y321948D01*
X42583Y322215D01*
Y322326D01*
X42599Y322420D01*
Y322514D01*
Y322577D01*
Y322608D01*
Y322624D01*
Y325832D01*
D02*
G37*
G36*
X35050Y363400D02*
X34547Y363321D01*
X34122Y363211D01*
X33918Y363133D01*
X33745Y363054D01*
X33572Y362976D01*
X33431Y362897D01*
X33289Y362818D01*
X33179Y362740D01*
X33085Y362677D01*
X32990Y362614D01*
X32927Y362567D01*
X32880Y362519D01*
X32865Y362504D01*
X32849Y362488D01*
X32707Y362331D01*
X32582Y362174D01*
X32472Y362016D01*
X32393Y361843D01*
X32236Y361513D01*
X32141Y361215D01*
X32094Y360947D01*
X32078Y360821D01*
X32063Y360727D01*
X32047Y360649D01*
Y360586D01*
Y360554D01*
Y360538D01*
X32063Y360318D01*
X32094Y360114D01*
X32141Y359910D01*
X32189Y359705D01*
X32346Y359359D01*
X32519Y359061D01*
X32692Y358809D01*
X32770Y358715D01*
X32849Y358636D01*
X32896Y358573D01*
X32943Y358510D01*
X32975Y358495D01*
X32990Y358479D01*
X33179Y358322D01*
X33368Y358180D01*
X33572Y358070D01*
X33777Y357976D01*
X34170Y357818D01*
X34547Y357708D01*
X34736Y357677D01*
X34893Y357645D01*
X35034Y357630D01*
X35160Y357614D01*
X35254Y357598D01*
X35396D01*
X35758Y357614D01*
X36088Y357677D01*
X36371Y357740D01*
X36607Y357834D01*
X36795Y357913D01*
X36937Y357991D01*
X37031Y358054D01*
X37063Y358070D01*
X37298Y358259D01*
X37487Y358447D01*
X37629Y358636D01*
X37754Y358825D01*
X37833Y358998D01*
X37880Y359123D01*
X37912Y359218D01*
X37927Y359234D01*
Y359249D01*
X38084Y359029D01*
X38258Y358840D01*
X38430Y358667D01*
X38572Y358542D01*
X38713Y358432D01*
X38808Y358369D01*
X38871Y358322D01*
X38902Y358306D01*
X39122Y358196D01*
X39342Y358117D01*
X39547Y358054D01*
X39751Y358023D01*
X39908Y357991D01*
X40050Y357976D01*
X40349D01*
X40537Y358007D01*
X40883Y358086D01*
X41198Y358196D01*
X41481Y358322D01*
X41716Y358463D01*
X41811Y358526D01*
X41889Y358573D01*
X41952Y358620D01*
X42000Y358652D01*
X42015Y358667D01*
X42031Y358683D01*
X42188Y358825D01*
X42314Y358966D01*
X42424Y359123D01*
X42518Y359281D01*
X42675Y359595D01*
X42770Y359894D01*
X42833Y360177D01*
X42849Y360287D01*
X42864Y360381D01*
X42880Y360476D01*
Y360538D01*
Y360570D01*
Y360586D01*
Y360774D01*
X42849Y360963D01*
X42770Y361309D01*
X42660Y361623D01*
X42550Y361875D01*
X42424Y362079D01*
X42314Y362237D01*
X42235Y362331D01*
X42220Y362347D01*
X42204Y362362D01*
X42078Y362488D01*
X41921Y362598D01*
X41591Y362803D01*
X41245Y362960D01*
X40899Y363086D01*
X40584Y363180D01*
X40459Y363211D01*
X40333Y363243D01*
X40238Y363259D01*
X40160Y363274D01*
X40113Y363290D01*
X40097D01*
X39783Y361749D01*
X40034Y361718D01*
X40238Y361670D01*
X40427Y361608D01*
X40569Y361545D01*
X40679Y361482D01*
X40773Y361435D01*
X40820Y361403D01*
X40836Y361387D01*
X40962Y361262D01*
X41040Y361136D01*
X41103Y361010D01*
X41150Y360900D01*
X41182Y360806D01*
X41198Y360711D01*
Y360664D01*
Y360649D01*
X41182Y360491D01*
X41150Y360350D01*
X41103Y360224D01*
X41040Y360130D01*
X40978Y360051D01*
X40930Y359988D01*
X40899Y359957D01*
X40883Y359941D01*
X40757Y359847D01*
X40616Y359784D01*
X40474Y359721D01*
X40349Y359689D01*
X40223Y359674D01*
X40128Y359658D01*
X40034D01*
X39798Y359674D01*
X39594Y359721D01*
X39421Y359784D01*
X39279Y359847D01*
X39169Y359910D01*
X39075Y359972D01*
X39028Y360020D01*
X39012Y360035D01*
X38902Y360193D01*
X38808Y360350D01*
X38761Y360523D01*
X38713Y360696D01*
X38698Y360837D01*
X38682Y360963D01*
Y361042D01*
Y361073D01*
X37015Y361246D01*
X37063Y361089D01*
X37110Y360947D01*
X37141Y360806D01*
X37157Y360696D01*
X37173Y360617D01*
Y360554D01*
Y360507D01*
Y360491D01*
X37157Y360318D01*
X37110Y360161D01*
X37031Y360020D01*
X36953Y359894D01*
X36858Y359799D01*
X36795Y359721D01*
X36732Y359674D01*
X36717Y359658D01*
X36544Y359548D01*
X36339Y359454D01*
X36135Y359391D01*
X35946Y359359D01*
X35773Y359328D01*
X35632Y359312D01*
X35506D01*
X35207Y359328D01*
X34956Y359375D01*
X34720Y359422D01*
X34547Y359485D01*
X34390Y359564D01*
X34295Y359611D01*
X34217Y359658D01*
X34201Y359674D01*
X34044Y359815D01*
X33934Y359957D01*
X33855Y360114D01*
X33808Y360256D01*
X33777Y360365D01*
X33745Y360460D01*
Y360538D01*
Y360554D01*
X33761Y360727D01*
X33808Y360884D01*
X33871Y361026D01*
X33949Y361136D01*
X34012Y361230D01*
X34075Y361309D01*
X34122Y361356D01*
X34138Y361372D01*
X34295Y361482D01*
X34484Y361576D01*
X34673Y361655D01*
X34861Y361702D01*
X35034Y361749D01*
X35160Y361765D01*
X35254Y361781D01*
X35286D01*
X35050Y363400D01*
D02*
G37*
G36*
X34264Y356215D02*
X32220D01*
Y354548D01*
X34264D01*
Y356215D01*
D02*
G37*
%LPD*%
G36*
X40806Y323285D02*
Y323096D01*
Y322923D01*
X40790Y322608D01*
X40775Y322373D01*
X40759Y322168D01*
X40743Y322027D01*
X40728Y321932D01*
X40712Y321870D01*
Y321854D01*
X40649Y321681D01*
X40586Y321524D01*
X40492Y321382D01*
X40413Y321256D01*
X40319Y321162D01*
X40256Y321083D01*
X40209Y321036D01*
X40193Y321021D01*
X40036Y320895D01*
X39863Y320800D01*
X39674Y320706D01*
X39501Y320643D01*
X39344Y320580D01*
X39218Y320549D01*
X39139Y320517D01*
X39108D01*
X38841Y320454D01*
X38526Y320423D01*
X38228Y320392D01*
X37929Y320360D01*
X37662D01*
X37552Y320344D01*
X36844D01*
X36482Y320376D01*
X36168Y320392D01*
X35901Y320423D01*
X35696Y320454D01*
X35539Y320486D01*
X35445Y320502D01*
X35429Y320517D01*
X35413D01*
X35177Y320580D01*
X34957Y320643D01*
X34784Y320722D01*
X34643Y320785D01*
X34533Y320832D01*
X34454Y320879D01*
X34407Y320910D01*
X34391Y320926D01*
X34187Y321115D01*
X34045Y321319D01*
X33983Y321414D01*
X33951Y321477D01*
X33935Y321524D01*
X33920Y321539D01*
X33872Y321697D01*
X33825Y321885D01*
X33794Y322090D01*
X33778Y322294D01*
Y322483D01*
X33762Y322624D01*
Y322687D01*
Y322734D01*
Y322750D01*
Y322766D01*
Y324071D01*
X40806D01*
Y323285D01*
D02*
G37*
%LPC*%
G36*
X296707Y344150D02*
X296534D01*
X295921Y344119D01*
X295355Y344056D01*
X295088Y344024D01*
X294852Y343977D01*
X294616Y343914D01*
X294412Y343867D01*
X294223Y343820D01*
X294050Y343757D01*
X293909Y343710D01*
X293783Y343678D01*
X293688Y343631D01*
X293626Y343615D01*
X293578Y343584D01*
X293563D01*
X293122Y343348D01*
X292745Y343097D01*
X292415Y342829D01*
X292148Y342578D01*
X291943Y342358D01*
X291802Y342169D01*
X291739Y342106D01*
X291707Y342059D01*
X291692Y342028D01*
X291676Y342012D01*
X291472Y341634D01*
X291314Y341241D01*
X291204Y340848D01*
X291126Y340502D01*
X291094Y340345D01*
X291078Y340188D01*
X291063Y340062D01*
Y339952D01*
X291047Y339858D01*
Y339795D01*
Y339748D01*
Y339732D01*
X291063Y339339D01*
X291126Y338962D01*
X291204Y338600D01*
X291283Y338285D01*
X291377Y338018D01*
X291409Y337908D01*
X291440Y337798D01*
X291472Y337735D01*
X291503Y337672D01*
X291519Y337641D01*
Y337625D01*
X291707Y337248D01*
X291912Y336918D01*
X292101Y336650D01*
X292289Y336414D01*
X292446Y336226D01*
X292572Y336100D01*
X292651Y336021D01*
X292682Y335990D01*
X296912D01*
Y339779D01*
X295119D01*
Y337767D01*
X293783D01*
X293626Y337940D01*
X293500Y338112D01*
X293390Y338285D01*
X293295Y338427D01*
X293217Y338568D01*
X293170Y338679D01*
X293138Y338741D01*
X293122Y338773D01*
X293044Y338977D01*
X292981Y339166D01*
X292950Y339355D01*
X292918Y339512D01*
X292902Y339638D01*
X292887Y339732D01*
Y339811D01*
Y339826D01*
X292902Y340031D01*
X292918Y340219D01*
X293012Y340565D01*
X293154Y340880D01*
X293311Y341131D01*
X293468Y341320D01*
X293610Y341461D01*
X293704Y341556D01*
X293720Y341572D01*
X293736Y341587D01*
X293940Y341713D01*
X294144Y341823D01*
X294616Y342012D01*
X295103Y342137D01*
X295575Y342232D01*
X295779Y342263D01*
X295984Y342279D01*
X296173Y342310D01*
X296330D01*
X296456Y342326D01*
X296644D01*
X296975Y342310D01*
X297273Y342295D01*
X297556Y342263D01*
X297824Y342216D01*
X298059Y342169D01*
X298279Y342106D01*
X298468Y342043D01*
X298641Y341980D01*
X298798Y341917D01*
X298940Y341855D01*
X299050Y341792D01*
X299144Y341744D01*
X299207Y341697D01*
X299254Y341666D01*
X299286Y341634D01*
X299301D01*
X299459Y341493D01*
X299600Y341351D01*
X299710Y341210D01*
X299804Y341053D01*
X299962Y340754D01*
X300072Y340455D01*
X300135Y340204D01*
X300150Y340094D01*
X300166Y339999D01*
X300182Y339921D01*
Y339858D01*
Y339826D01*
Y339811D01*
X300166Y339543D01*
X300119Y339307D01*
X300040Y339103D01*
X299962Y338914D01*
X299883Y338773D01*
X299804Y338663D01*
X299757Y338584D01*
X299742Y338568D01*
X299569Y338396D01*
X299364Y338238D01*
X299144Y338112D01*
X298955Y338018D01*
X298767Y337940D01*
X298625Y337892D01*
X298515Y337861D01*
X298500Y337845D01*
X298484D01*
X298877Y336100D01*
X299160Y336163D01*
X299427Y336226D01*
X299663Y336320D01*
X299899Y336414D01*
X300103Y336509D01*
X300292Y336619D01*
X300465Y336713D01*
X300622Y336823D01*
X300764Y336918D01*
X300889Y337012D01*
X300984Y337106D01*
X301078Y337169D01*
X301141Y337232D01*
X301188Y337279D01*
X301204Y337311D01*
X301220Y337326D01*
X301361Y337499D01*
X301487Y337704D01*
X301597Y337908D01*
X301691Y338112D01*
X301833Y338521D01*
X301927Y338930D01*
X301959Y339103D01*
X301974Y339276D01*
X301990Y339433D01*
X302006Y339559D01*
X302021Y339669D01*
Y339763D01*
Y339811D01*
Y339826D01*
X301990Y340298D01*
X301927Y340723D01*
X301817Y341100D01*
X301707Y341430D01*
X301644Y341572D01*
X301597Y341697D01*
X301534Y341807D01*
X301487Y341886D01*
X301455Y341965D01*
X301424Y342012D01*
X301392Y342043D01*
Y342059D01*
X301141Y342389D01*
X300842Y342688D01*
X300543Y342939D01*
X300229Y343159D01*
X299962Y343332D01*
X299852Y343411D01*
X299742Y343458D01*
X299663Y343505D01*
X299600Y343537D01*
X299553Y343568D01*
X299537D01*
X299050Y343757D01*
X298547Y343898D01*
X298044Y344008D01*
X297572Y344071D01*
X297352Y344103D01*
X297163Y344119D01*
X296975Y344134D01*
X296833D01*
X296707Y344150D01*
D02*
G37*
G36*
X301849Y325582D02*
X291220D01*
Y322280D01*
X291236Y321903D01*
X291267Y321557D01*
X291314Y321258D01*
X291377Y321006D01*
X291424Y320802D01*
X291472Y320660D01*
X291503Y320566D01*
X291519Y320535D01*
X291644Y320283D01*
X291786Y320063D01*
X291928Y319874D01*
X292069Y319701D01*
X292195Y319576D01*
X292305Y319466D01*
X292368Y319403D01*
X292399Y319387D01*
X292635Y319214D01*
X292902Y319057D01*
X293170Y318915D01*
X293437Y318805D01*
X293657Y318711D01*
X293846Y318648D01*
X293924Y318617D01*
X293971Y318601D01*
X294003Y318585D01*
X294019D01*
X294412Y318475D01*
X294820Y318396D01*
X295229Y318349D01*
X295607Y318302D01*
X295779D01*
X295937Y318286D01*
X296078D01*
X296188Y318271D01*
X296424D01*
X296975Y318286D01*
X297462Y318318D01*
X297698Y318333D01*
X297902Y318365D01*
X298091Y318396D01*
X298264Y318412D01*
X298421Y318444D01*
X298562Y318475D01*
X298688Y318506D01*
X298783Y318522D01*
X298861Y318538D01*
X298924Y318554D01*
X298955Y318569D01*
X298971D01*
X299349Y318695D01*
X299679Y318821D01*
X299962Y318962D01*
X300198Y319104D01*
X300402Y319214D01*
X300543Y319308D01*
X300622Y319371D01*
X300654Y319403D01*
X300874Y319607D01*
X301062Y319796D01*
X301220Y320000D01*
X301345Y320173D01*
X301440Y320330D01*
X301518Y320440D01*
X301550Y320519D01*
X301565Y320550D01*
X301660Y320802D01*
X301723Y321101D01*
X301786Y321399D01*
X301817Y321698D01*
X301833Y321965D01*
Y322076D01*
X301849Y322170D01*
Y322264D01*
Y322327D01*
Y322359D01*
Y322374D01*
Y325582D01*
D02*
G37*
G36*
Y334323D02*
X291220D01*
Y332688D01*
X298138D01*
X291220Y329182D01*
Y327405D01*
X301849D01*
Y329041D01*
X294742D01*
X301849Y332625D01*
Y334323D01*
D02*
G37*
G36*
X294300Y363150D02*
X293797Y363071D01*
X293372Y362961D01*
X293168Y362883D01*
X292995Y362804D01*
X292822Y362725D01*
X292681Y362647D01*
X292539Y362568D01*
X292429Y362490D01*
X292335Y362427D01*
X292240Y362364D01*
X292178Y362317D01*
X292130Y362270D01*
X292115Y362254D01*
X292099Y362238D01*
X291957Y362081D01*
X291832Y361924D01*
X291722Y361766D01*
X291643Y361594D01*
X291486Y361263D01*
X291391Y360965D01*
X291344Y360697D01*
X291329Y360572D01*
X291313Y360477D01*
X291297Y360398D01*
Y360336D01*
Y360304D01*
Y360289D01*
X291313Y360068D01*
X291344Y359864D01*
X291391Y359660D01*
X291439Y359455D01*
X291596Y359109D01*
X291769Y358811D01*
X291942Y358559D01*
X292020Y358465D01*
X292099Y358386D01*
X292146Y358323D01*
X292193Y358260D01*
X292225Y358245D01*
X292240Y358229D01*
X292429Y358072D01*
X292618Y357930D01*
X292822Y357820D01*
X293027Y357726D01*
X293420Y357569D01*
X293797Y357458D01*
X293986Y357427D01*
X294143Y357396D01*
X294284Y357380D01*
X294410Y357364D01*
X294505Y357348D01*
X294646D01*
X295008Y357364D01*
X295338Y357427D01*
X295621Y357490D01*
X295857Y357584D01*
X296045Y357663D01*
X296187Y357741D01*
X296281Y357804D01*
X296313Y357820D01*
X296548Y358009D01*
X296737Y358197D01*
X296879Y358386D01*
X297004Y358575D01*
X297083Y358748D01*
X297130Y358873D01*
X297162Y358968D01*
X297177Y358983D01*
Y358999D01*
X297334Y358779D01*
X297507Y358590D01*
X297680Y358418D01*
X297822Y358292D01*
X297963Y358182D01*
X298058Y358119D01*
X298121Y358072D01*
X298152Y358056D01*
X298372Y357946D01*
X298592Y357867D01*
X298797Y357804D01*
X299001Y357773D01*
X299158Y357741D01*
X299300Y357726D01*
X299599D01*
X299787Y357757D01*
X300133Y357836D01*
X300448Y357946D01*
X300731Y358072D01*
X300966Y358213D01*
X301061Y358276D01*
X301139Y358323D01*
X301202Y358370D01*
X301250Y358402D01*
X301265Y358418D01*
X301281Y358433D01*
X301438Y358575D01*
X301564Y358716D01*
X301674Y358873D01*
X301768Y359031D01*
X301926Y359345D01*
X302020Y359644D01*
X302083Y359927D01*
X302099Y360037D01*
X302114Y360131D01*
X302130Y360226D01*
Y360289D01*
Y360320D01*
Y360336D01*
Y360524D01*
X302099Y360713D01*
X302020Y361059D01*
X301910Y361373D01*
X301800Y361625D01*
X301674Y361829D01*
X301564Y361987D01*
X301485Y362081D01*
X301470Y362097D01*
X301454Y362112D01*
X301328Y362238D01*
X301171Y362348D01*
X300841Y362552D01*
X300495Y362710D01*
X300149Y362836D01*
X299834Y362930D01*
X299709Y362961D01*
X299583Y362993D01*
X299489Y363008D01*
X299410Y363024D01*
X299363Y363040D01*
X299347D01*
X299033Y361499D01*
X299284Y361468D01*
X299489Y361421D01*
X299677Y361358D01*
X299819Y361295D01*
X299929Y361232D01*
X300023Y361185D01*
X300070Y361153D01*
X300086Y361138D01*
X300212Y361012D01*
X300290Y360886D01*
X300353Y360760D01*
X300400Y360650D01*
X300432Y360556D01*
X300448Y360461D01*
Y360414D01*
Y360398D01*
X300432Y360241D01*
X300400Y360100D01*
X300353Y359974D01*
X300290Y359880D01*
X300228Y359801D01*
X300180Y359738D01*
X300149Y359707D01*
X300133Y359691D01*
X300007Y359597D01*
X299866Y359534D01*
X299724Y359471D01*
X299599Y359440D01*
X299473Y359424D01*
X299379Y359408D01*
X299284D01*
X299048Y359424D01*
X298844Y359471D01*
X298671Y359534D01*
X298529Y359597D01*
X298419Y359660D01*
X298325Y359723D01*
X298278Y359770D01*
X298262Y359785D01*
X298152Y359943D01*
X298058Y360100D01*
X298011Y360273D01*
X297963Y360446D01*
X297948Y360587D01*
X297932Y360713D01*
Y360792D01*
Y360823D01*
X296265Y360996D01*
X296313Y360839D01*
X296360Y360697D01*
X296391Y360556D01*
X296407Y360446D01*
X296423Y360367D01*
Y360304D01*
Y360257D01*
Y360241D01*
X296407Y360068D01*
X296360Y359911D01*
X296281Y359770D01*
X296203Y359644D01*
X296108Y359549D01*
X296045Y359471D01*
X295982Y359424D01*
X295967Y359408D01*
X295794Y359298D01*
X295589Y359204D01*
X295385Y359141D01*
X295196Y359109D01*
X295023Y359078D01*
X294882Y359062D01*
X294756D01*
X294457Y359078D01*
X294206Y359125D01*
X293970Y359172D01*
X293797Y359235D01*
X293640Y359314D01*
X293545Y359361D01*
X293467Y359408D01*
X293451Y359424D01*
X293294Y359565D01*
X293184Y359707D01*
X293105Y359864D01*
X293058Y360005D01*
X293027Y360116D01*
X292995Y360210D01*
Y360289D01*
Y360304D01*
X293011Y360477D01*
X293058Y360634D01*
X293121Y360776D01*
X293200Y360886D01*
X293262Y360980D01*
X293325Y361059D01*
X293372Y361106D01*
X293388Y361122D01*
X293545Y361232D01*
X293734Y361326D01*
X293923Y361405D01*
X294111Y361452D01*
X294284Y361499D01*
X294410Y361515D01*
X294505Y361531D01*
X294536D01*
X294300Y363150D01*
D02*
G37*
G36*
Y352993D02*
X293797Y352915D01*
X293372Y352804D01*
X293168Y352726D01*
X292995Y352647D01*
X292822Y352569D01*
X292681Y352490D01*
X292539Y352411D01*
X292429Y352333D01*
X292335Y352270D01*
X292240Y352207D01*
X292178Y352160D01*
X292130Y352113D01*
X292115Y352097D01*
X292099Y352081D01*
X291957Y351924D01*
X291832Y351767D01*
X291722Y351610D01*
X291643Y351437D01*
X291486Y351106D01*
X291391Y350808D01*
X291344Y350541D01*
X291329Y350415D01*
X291313Y350320D01*
X291297Y350242D01*
Y350179D01*
Y350147D01*
Y350132D01*
X291313Y349912D01*
X291344Y349707D01*
X291391Y349503D01*
X291439Y349298D01*
X291596Y348952D01*
X291769Y348654D01*
X291942Y348402D01*
X292020Y348308D01*
X292099Y348229D01*
X292146Y348166D01*
X292193Y348103D01*
X292225Y348088D01*
X292240Y348072D01*
X292429Y347915D01*
X292618Y347773D01*
X292822Y347663D01*
X293027Y347569D01*
X293420Y347412D01*
X293797Y347302D01*
X293986Y347270D01*
X294143Y347239D01*
X294284Y347223D01*
X294410Y347207D01*
X294505Y347192D01*
X294646D01*
X295008Y347207D01*
X295338Y347270D01*
X295621Y347333D01*
X295857Y347427D01*
X296045Y347506D01*
X296187Y347585D01*
X296281Y347648D01*
X296313Y347663D01*
X296548Y347852D01*
X296737Y348041D01*
X296879Y348229D01*
X297004Y348418D01*
X297083Y348591D01*
X297130Y348717D01*
X297162Y348811D01*
X297177Y348827D01*
Y348842D01*
X297334Y348622D01*
X297507Y348434D01*
X297680Y348261D01*
X297822Y348135D01*
X297963Y348025D01*
X298058Y347962D01*
X298121Y347915D01*
X298152Y347899D01*
X298372Y347789D01*
X298592Y347710D01*
X298797Y347648D01*
X299001Y347616D01*
X299158Y347585D01*
X299300Y347569D01*
X299599D01*
X299787Y347600D01*
X300133Y347679D01*
X300448Y347789D01*
X300731Y347915D01*
X300966Y348056D01*
X301061Y348119D01*
X301139Y348166D01*
X301202Y348214D01*
X301250Y348245D01*
X301265Y348261D01*
X301281Y348276D01*
X301438Y348418D01*
X301564Y348559D01*
X301674Y348717D01*
X301768Y348874D01*
X301926Y349188D01*
X302020Y349487D01*
X302083Y349770D01*
X302099Y349880D01*
X302114Y349975D01*
X302130Y350069D01*
Y350132D01*
Y350163D01*
Y350179D01*
Y350368D01*
X302099Y350556D01*
X302020Y350902D01*
X301910Y351217D01*
X301800Y351468D01*
X301674Y351673D01*
X301564Y351830D01*
X301485Y351924D01*
X301470Y351940D01*
X301454Y351955D01*
X301328Y352081D01*
X301171Y352191D01*
X300841Y352396D01*
X300495Y352553D01*
X300149Y352679D01*
X299834Y352773D01*
X299709Y352804D01*
X299583Y352836D01*
X299489Y352852D01*
X299410Y352867D01*
X299363Y352883D01*
X299347D01*
X299033Y351342D01*
X299284Y351311D01*
X299489Y351264D01*
X299677Y351201D01*
X299819Y351138D01*
X299929Y351075D01*
X300023Y351028D01*
X300070Y350996D01*
X300086Y350981D01*
X300212Y350855D01*
X300290Y350729D01*
X300353Y350603D01*
X300400Y350493D01*
X300432Y350399D01*
X300448Y350305D01*
Y350257D01*
Y350242D01*
X300432Y350084D01*
X300400Y349943D01*
X300353Y349817D01*
X300290Y349723D01*
X300228Y349644D01*
X300180Y349581D01*
X300149Y349550D01*
X300133Y349534D01*
X300007Y349440D01*
X299866Y349377D01*
X299724Y349314D01*
X299599Y349283D01*
X299473Y349267D01*
X299379Y349251D01*
X299284D01*
X299048Y349267D01*
X298844Y349314D01*
X298671Y349377D01*
X298529Y349440D01*
X298419Y349503D01*
X298325Y349566D01*
X298278Y349613D01*
X298262Y349629D01*
X298152Y349786D01*
X298058Y349943D01*
X298011Y350116D01*
X297963Y350289D01*
X297948Y350430D01*
X297932Y350556D01*
Y350635D01*
Y350666D01*
X296265Y350839D01*
X296313Y350682D01*
X296360Y350541D01*
X296391Y350399D01*
X296407Y350289D01*
X296423Y350210D01*
Y350147D01*
Y350100D01*
Y350084D01*
X296407Y349912D01*
X296360Y349754D01*
X296281Y349613D01*
X296203Y349487D01*
X296108Y349393D01*
X296045Y349314D01*
X295982Y349267D01*
X295967Y349251D01*
X295794Y349141D01*
X295589Y349047D01*
X295385Y348984D01*
X295196Y348952D01*
X295023Y348921D01*
X294882Y348905D01*
X294756D01*
X294457Y348921D01*
X294206Y348968D01*
X293970Y349015D01*
X293797Y349078D01*
X293640Y349157D01*
X293545Y349204D01*
X293467Y349251D01*
X293451Y349267D01*
X293294Y349408D01*
X293184Y349550D01*
X293105Y349707D01*
X293058Y349849D01*
X293027Y349959D01*
X292995Y350053D01*
Y350132D01*
Y350147D01*
X293011Y350320D01*
X293058Y350478D01*
X293121Y350619D01*
X293200Y350729D01*
X293262Y350824D01*
X293325Y350902D01*
X293372Y350949D01*
X293388Y350965D01*
X293545Y351075D01*
X293734Y351169D01*
X293923Y351248D01*
X294111Y351295D01*
X294284Y351342D01*
X294410Y351358D01*
X294505Y351374D01*
X294536D01*
X294300Y352993D01*
D02*
G37*
G36*
X293514Y355965D02*
X291470D01*
Y354298D01*
X293514D01*
Y355965D01*
D02*
G37*
%LPD*%
G36*
X300056Y323035D02*
Y322846D01*
Y322673D01*
X300040Y322359D01*
X300025Y322123D01*
X300009Y321918D01*
X299993Y321777D01*
X299977Y321682D01*
X299962Y321619D01*
Y321604D01*
X299899Y321431D01*
X299836Y321274D01*
X299742Y321132D01*
X299663Y321006D01*
X299569Y320912D01*
X299506Y320833D01*
X299459Y320786D01*
X299443Y320770D01*
X299286Y320645D01*
X299113Y320550D01*
X298924Y320456D01*
X298751Y320393D01*
X298594Y320330D01*
X298468Y320299D01*
X298389Y320267D01*
X298358D01*
X298091Y320205D01*
X297776Y320173D01*
X297478Y320142D01*
X297179Y320110D01*
X296912D01*
X296801Y320094D01*
X296094D01*
X295732Y320126D01*
X295418Y320142D01*
X295151Y320173D01*
X294946Y320205D01*
X294789Y320236D01*
X294695Y320252D01*
X294679Y320267D01*
X294663D01*
X294427Y320330D01*
X294207Y320393D01*
X294034Y320472D01*
X293893Y320535D01*
X293783Y320582D01*
X293704Y320629D01*
X293657Y320660D01*
X293641Y320676D01*
X293437Y320865D01*
X293295Y321069D01*
X293232Y321164D01*
X293201Y321227D01*
X293185Y321274D01*
X293170Y321289D01*
X293122Y321447D01*
X293075Y321635D01*
X293044Y321840D01*
X293028Y322044D01*
Y322233D01*
X293012Y322374D01*
Y322437D01*
Y322484D01*
Y322500D01*
Y322516D01*
Y323821D01*
X300056D01*
Y323035D01*
D02*
G37*
%LPC*%
G36*
X157672Y226660D02*
X154052D01*
Y224816D01*
X157672D01*
Y226660D01*
D02*
G37*
G36*
X192689D02*
X189070D01*
Y224816D01*
X192689D01*
Y226660D01*
D02*
G37*
G36*
X219664Y231847D02*
X216127D01*
Y222250D01*
X218069D01*
Y225870D01*
X219788D01*
X219996Y225884D01*
X220191D01*
X220371Y225897D01*
X220537Y225911D01*
X220690Y225925D01*
X220814Y225939D01*
X220939D01*
X221036Y225953D01*
X221133Y225967D01*
X221203Y225981D01*
X221258D01*
X221300Y225994D01*
X221328D01*
X221522Y226050D01*
X221702Y226119D01*
X221868Y226189D01*
X222021Y226272D01*
X222146Y226341D01*
X222243Y226397D01*
X222299Y226438D01*
X222326Y226452D01*
X222507Y226591D01*
X222659Y226743D01*
X222812Y226910D01*
X222922Y227048D01*
X223020Y227187D01*
X223089Y227298D01*
X223131Y227367D01*
X223144Y227395D01*
X223255Y227631D01*
X223339Y227881D01*
X223394Y228144D01*
X223436Y228380D01*
X223463Y228574D01*
Y228671D01*
X223477Y228740D01*
Y228810D01*
Y228851D01*
Y228879D01*
Y228893D01*
X223449Y229295D01*
X223394Y229670D01*
X223297Y229975D01*
X223200Y230252D01*
X223144Y230363D01*
X223089Y230460D01*
X223047Y230543D01*
X222992Y230627D01*
X222964Y230682D01*
X222936Y230724D01*
X222909Y230737D01*
Y230751D01*
X222687Y231001D01*
X222465Y231209D01*
X222229Y231375D01*
X222021Y231500D01*
X221827Y231583D01*
X221674Y231653D01*
X221619Y231667D01*
X221577Y231681D01*
X221550Y231694D01*
X221536D01*
X221425Y231722D01*
X221286Y231750D01*
X221120Y231764D01*
X220953Y231778D01*
X220565Y231805D01*
X220177Y231833D01*
X219816D01*
X219664Y231847D01*
D02*
G37*
G36*
X197599D02*
X193771D01*
Y222250D01*
X197405D01*
X197779Y222264D01*
X198126Y222278D01*
X198417Y222306D01*
X198653Y222347D01*
X198847Y222389D01*
X199000Y222416D01*
X199041Y222430D01*
X199083D01*
X199097Y222444D01*
X199111D01*
X199416Y222555D01*
X199693Y222680D01*
X199915Y222805D01*
X200109Y222930D01*
X200262Y223041D01*
X200373Y223124D01*
X200442Y223179D01*
X200470Y223207D01*
X200705Y223470D01*
X200913Y223748D01*
X201094Y224039D01*
X201232Y224303D01*
X201343Y224552D01*
X201399Y224649D01*
X201427Y224732D01*
X201454Y224816D01*
X201482Y224871D01*
X201496Y224899D01*
Y224913D01*
X201593Y225246D01*
X201676Y225592D01*
X201732Y225925D01*
X201759Y226244D01*
X201773Y226397D01*
X201787Y226535D01*
Y226646D01*
X201801Y226757D01*
Y226840D01*
Y226896D01*
Y226938D01*
Y226951D01*
X201787Y227437D01*
X201745Y227867D01*
X201732Y228075D01*
X201704Y228255D01*
X201676Y228435D01*
X201648Y228588D01*
X201607Y228727D01*
X201579Y228851D01*
X201551Y228962D01*
X201537Y229046D01*
X201510Y229115D01*
X201496Y229170D01*
X201482Y229198D01*
Y229212D01*
X201357Y229545D01*
X201205Y229850D01*
X201052Y230113D01*
X200900Y230335D01*
X200775Y230516D01*
X200664Y230654D01*
X200594Y230737D01*
X200581Y230765D01*
X200567D01*
X200331Y230987D01*
X200095Y231167D01*
X199846Y231320D01*
X199624Y231445D01*
X199429Y231542D01*
X199263Y231611D01*
X199208Y231625D01*
X199166Y231639D01*
X199138Y231653D01*
X199124D01*
X198861Y231722D01*
X198570Y231764D01*
X198265Y231805D01*
X197973Y231819D01*
X197710Y231833D01*
X197599Y231847D01*
D02*
G37*
G36*
X205324D02*
X203382D01*
Y222250D01*
X205324D01*
Y231847D01*
D02*
G37*
G36*
X183869Y232027D02*
X183703D01*
X183300Y232013D01*
X182940Y231972D01*
X182621Y231916D01*
X182344Y231861D01*
X182219Y231819D01*
X182108Y231791D01*
X182025Y231764D01*
X181941Y231736D01*
X181886Y231708D01*
X181844Y231694D01*
X181817Y231681D01*
X181803D01*
X181525Y231542D01*
X181290Y231389D01*
X181082Y231223D01*
X180915Y231070D01*
X180777Y230932D01*
X180693Y230821D01*
X180624Y230737D01*
X180610Y230724D01*
Y230710D01*
X180471Y230474D01*
X180374Y230224D01*
X180305Y229989D01*
X180263Y229781D01*
X180236Y229600D01*
X180208Y229462D01*
Y229406D01*
Y229364D01*
Y229351D01*
Y229337D01*
X180222Y229129D01*
X180250Y228921D01*
X180291Y228740D01*
X180347Y228560D01*
X180485Y228227D01*
X180652Y227936D01*
X180721Y227811D01*
X180804Y227714D01*
X180874Y227617D01*
X180943Y227534D01*
X180998Y227478D01*
X181040Y227437D01*
X181068Y227409D01*
X181082Y227395D01*
X181206Y227298D01*
X181359Y227201D01*
X181511Y227104D01*
X181692Y227021D01*
X182038Y226854D01*
X182399Y226716D01*
X182579Y226660D01*
X182732Y226605D01*
X182885Y226563D01*
X183009Y226521D01*
X183106Y226494D01*
X183190Y226466D01*
X183245Y226452D01*
X183259D01*
X183481Y226397D01*
X183675Y226341D01*
X183855Y226300D01*
X184022Y226258D01*
X184160Y226216D01*
X184285Y226189D01*
X184396Y226147D01*
X184493Y226119D01*
X184576Y226105D01*
X184646Y226078D01*
X184743Y226050D01*
X184798Y226022D01*
X184812D01*
X184993Y225953D01*
X185131Y225884D01*
X185256Y225814D01*
X185353Y225745D01*
X185422Y225689D01*
X185464Y225648D01*
X185492Y225620D01*
X185506Y225606D01*
X185575Y225509D01*
X185630Y225412D01*
X185658Y225315D01*
X185686Y225232D01*
X185700Y225149D01*
X185714Y225079D01*
Y225037D01*
Y225024D01*
X185700Y224830D01*
X185644Y224663D01*
X185561Y224497D01*
X185478Y224358D01*
X185381Y224247D01*
X185311Y224164D01*
X185256Y224108D01*
X185228Y224095D01*
X185034Y223970D01*
X184812Y223873D01*
X184576Y223803D01*
X184354Y223762D01*
X184146Y223734D01*
X183980Y223706D01*
X183827D01*
X183508Y223720D01*
X183231Y223776D01*
X182995Y223845D01*
X182787Y223928D01*
X182621Y224011D01*
X182510Y224081D01*
X182441Y224136D01*
X182413Y224150D01*
X182233Y224344D01*
X182094Y224552D01*
X181969Y224788D01*
X181886Y225024D01*
X181817Y225232D01*
X181761Y225398D01*
X181747Y225454D01*
Y225509D01*
X181733Y225537D01*
Y225551D01*
X179847Y225370D01*
X179889Y225079D01*
X179944Y224802D01*
X180028Y224538D01*
X180097Y224303D01*
X180194Y224081D01*
X180291Y223873D01*
X180388Y223692D01*
X180485Y223526D01*
X180582Y223387D01*
X180679Y223262D01*
X180763Y223151D01*
X180846Y223054D01*
X180901Y222985D01*
X180957Y222943D01*
X180984Y222916D01*
X180998Y222902D01*
X181192Y222749D01*
X181401Y222624D01*
X181622Y222514D01*
X181858Y222416D01*
X182080Y222347D01*
X182316Y222278D01*
X182773Y222181D01*
X182981Y222139D01*
X183176Y222111D01*
X183342Y222097D01*
X183495Y222084D01*
X183619Y222070D01*
X183800D01*
X184244Y222084D01*
X184646Y222125D01*
X185006Y222181D01*
X185159Y222208D01*
X185311Y222250D01*
X185436Y222278D01*
X185547Y222306D01*
X185644Y222333D01*
X185728Y222361D01*
X185797Y222389D01*
X185838Y222403D01*
X185866Y222416D01*
X185880D01*
X186185Y222569D01*
X186435Y222735D01*
X186670Y222902D01*
X186851Y223082D01*
X186989Y223235D01*
X187101Y223373D01*
X187156Y223457D01*
X187184Y223470D01*
Y223484D01*
X187336Y223762D01*
X187461Y224025D01*
X187544Y224289D01*
X187600Y224538D01*
X187628Y224732D01*
X187641Y224830D01*
X187655Y224899D01*
Y224954D01*
Y224996D01*
Y225024D01*
Y225037D01*
X187641Y225370D01*
X187600Y225662D01*
X187530Y225925D01*
X187461Y226147D01*
X187392Y226327D01*
X187322Y226452D01*
X187281Y226535D01*
X187267Y226563D01*
X187114Y226785D01*
X186934Y226979D01*
X186754Y227146D01*
X186587Y227284D01*
X186435Y227395D01*
X186310Y227478D01*
X186227Y227534D01*
X186213Y227548D01*
X186199D01*
X186060Y227617D01*
X185922Y227686D01*
X185589Y227811D01*
X185242Y227922D01*
X184909Y228033D01*
X184757Y228075D01*
X184604Y228116D01*
X184466Y228158D01*
X184354Y228186D01*
X184257Y228213D01*
X184188Y228227D01*
X184133Y228241D01*
X184119D01*
X183869Y228311D01*
X183647Y228366D01*
X183439Y228421D01*
X183245Y228477D01*
X183092Y228532D01*
X182940Y228588D01*
X182815Y228643D01*
X182704Y228685D01*
X182607Y228727D01*
X182538Y228768D01*
X182468Y228796D01*
X182427Y228824D01*
X182358Y228865D01*
X182344Y228879D01*
X182246Y228976D01*
X182177Y229073D01*
X182136Y229170D01*
X182108Y229267D01*
X182080Y229337D01*
X182066Y229406D01*
Y229448D01*
Y229462D01*
X182080Y229600D01*
X182108Y229711D01*
X182163Y229822D01*
X182219Y229905D01*
X182274Y229975D01*
X182330Y230016D01*
X182358Y230044D01*
X182371Y230058D01*
X182565Y230183D01*
X182773Y230266D01*
X182995Y230335D01*
X183203Y230377D01*
X183384Y230405D01*
X183536Y230418D01*
X183675D01*
X183966Y230405D01*
X184216Y230363D01*
X184424Y230308D01*
X184590Y230252D01*
X184729Y230197D01*
X184826Y230141D01*
X184881Y230100D01*
X184895Y230086D01*
X185034Y229947D01*
X185159Y229781D01*
X185256Y229614D01*
X185325Y229434D01*
X185381Y229281D01*
X185408Y229156D01*
X185436Y229059D01*
Y229046D01*
Y229032D01*
X187378Y229101D01*
X187364Y229351D01*
X187322Y229573D01*
X187267Y229794D01*
X187197Y229989D01*
X187128Y230183D01*
X187045Y230363D01*
X186962Y230516D01*
X186879Y230668D01*
X186782Y230793D01*
X186698Y230904D01*
X186615Y231001D01*
X186546Y231084D01*
X186490Y231140D01*
X186449Y231181D01*
X186421Y231209D01*
X186407Y231223D01*
X186227Y231362D01*
X186033Y231486D01*
X185825Y231597D01*
X185603Y231694D01*
X185381Y231764D01*
X185159Y231833D01*
X184715Y231930D01*
X184507Y231958D01*
X184327Y231986D01*
X184146Y231999D01*
X183994Y232013D01*
X183869Y232027D01*
D02*
G37*
G36*
X210691D02*
X210524D01*
X210122Y232013D01*
X209761Y231972D01*
X209443Y231916D01*
X209165Y231861D01*
X209040Y231819D01*
X208929Y231791D01*
X208846Y231764D01*
X208763Y231736D01*
X208707Y231708D01*
X208666Y231694D01*
X208638Y231681D01*
X208624D01*
X208347Y231542D01*
X208111Y231389D01*
X207903Y231223D01*
X207737Y231070D01*
X207598Y230932D01*
X207515Y230821D01*
X207445Y230737D01*
X207432Y230724D01*
Y230710D01*
X207293Y230474D01*
X207196Y230224D01*
X207126Y229989D01*
X207085Y229781D01*
X207057Y229600D01*
X207029Y229462D01*
Y229406D01*
Y229364D01*
Y229351D01*
Y229337D01*
X207043Y229129D01*
X207071Y228921D01*
X207113Y228740D01*
X207168Y228560D01*
X207307Y228227D01*
X207473Y227936D01*
X207542Y227811D01*
X207626Y227714D01*
X207695Y227617D01*
X207764Y227534D01*
X207820Y227478D01*
X207861Y227437D01*
X207889Y227409D01*
X207903Y227395D01*
X208028Y227298D01*
X208180Y227201D01*
X208333Y227104D01*
X208513Y227021D01*
X208860Y226854D01*
X209221Y226716D01*
X209401Y226660D01*
X209553Y226605D01*
X209706Y226563D01*
X209831Y226521D01*
X209928Y226494D01*
X210011Y226466D01*
X210067Y226452D01*
X210080D01*
X210302Y226397D01*
X210497Y226341D01*
X210677Y226300D01*
X210843Y226258D01*
X210982Y226216D01*
X211107Y226189D01*
X211218Y226147D01*
X211315Y226119D01*
X211398Y226105D01*
X211467Y226078D01*
X211564Y226050D01*
X211620Y226022D01*
X211634D01*
X211814Y225953D01*
X211953Y225884D01*
X212078Y225814D01*
X212174Y225745D01*
X212244Y225689D01*
X212285Y225648D01*
X212313Y225620D01*
X212327Y225606D01*
X212396Y225509D01*
X212452Y225412D01*
X212480Y225315D01*
X212507Y225232D01*
X212521Y225149D01*
X212535Y225079D01*
Y225037D01*
Y225024D01*
X212521Y224830D01*
X212466Y224663D01*
X212383Y224497D01*
X212299Y224358D01*
X212202Y224247D01*
X212133Y224164D01*
X212078Y224108D01*
X212050Y224095D01*
X211856Y223970D01*
X211634Y223873D01*
X211398Y223803D01*
X211176Y223762D01*
X210968Y223734D01*
X210802Y223706D01*
X210649D01*
X210330Y223720D01*
X210053Y223776D01*
X209817Y223845D01*
X209609Y223928D01*
X209443Y224011D01*
X209331Y224081D01*
X209262Y224136D01*
X209234Y224150D01*
X209054Y224344D01*
X208916Y224552D01*
X208791Y224788D01*
X208707Y225024D01*
X208638Y225232D01*
X208583Y225398D01*
X208569Y225454D01*
Y225509D01*
X208555Y225537D01*
Y225551D01*
X206669Y225370D01*
X206710Y225079D01*
X206766Y224802D01*
X206849Y224538D01*
X206918Y224303D01*
X207015Y224081D01*
X207113Y223873D01*
X207210Y223692D01*
X207307Y223526D01*
X207404Y223387D01*
X207501Y223262D01*
X207584Y223151D01*
X207667Y223054D01*
X207723Y222985D01*
X207778Y222943D01*
X207806Y222916D01*
X207820Y222902D01*
X208014Y222749D01*
X208222Y222624D01*
X208444Y222514D01*
X208680Y222416D01*
X208902Y222347D01*
X209137Y222278D01*
X209595Y222181D01*
X209803Y222139D01*
X209997Y222111D01*
X210164Y222097D01*
X210316Y222084D01*
X210441Y222070D01*
X210621D01*
X211065Y222084D01*
X211467Y222125D01*
X211828Y222181D01*
X211980Y222208D01*
X212133Y222250D01*
X212258Y222278D01*
X212369Y222306D01*
X212466Y222333D01*
X212549Y222361D01*
X212618Y222389D01*
X212660Y222403D01*
X212688Y222416D01*
X212701D01*
X213007Y222569D01*
X213256Y222735D01*
X213492Y222902D01*
X213672Y223082D01*
X213811Y223235D01*
X213922Y223373D01*
X213977Y223457D01*
X214005Y223470D01*
Y223484D01*
X214158Y223762D01*
X214282Y224025D01*
X214366Y224289D01*
X214421Y224538D01*
X214449Y224732D01*
X214463Y224830D01*
X214477Y224899D01*
Y224954D01*
Y224996D01*
Y225024D01*
Y225037D01*
X214463Y225370D01*
X214421Y225662D01*
X214352Y225925D01*
X214282Y226147D01*
X214213Y226327D01*
X214144Y226452D01*
X214102Y226535D01*
X214088Y226563D01*
X213936Y226785D01*
X213755Y226979D01*
X213575Y227146D01*
X213409Y227284D01*
X213256Y227395D01*
X213132Y227478D01*
X213048Y227534D01*
X213034Y227548D01*
X213020D01*
X212882Y227617D01*
X212743Y227686D01*
X212410Y227811D01*
X212064Y227922D01*
X211731Y228033D01*
X211578Y228075D01*
X211426Y228116D01*
X211287Y228158D01*
X211176Y228186D01*
X211079Y228213D01*
X211010Y228227D01*
X210954Y228241D01*
X210940D01*
X210691Y228311D01*
X210469Y228366D01*
X210261Y228421D01*
X210067Y228477D01*
X209914Y228532D01*
X209761Y228588D01*
X209637Y228643D01*
X209526Y228685D01*
X209429Y228727D01*
X209359Y228768D01*
X209290Y228796D01*
X209248Y228824D01*
X209179Y228865D01*
X209165Y228879D01*
X209068Y228976D01*
X208999Y229073D01*
X208957Y229170D01*
X208929Y229267D01*
X208902Y229337D01*
X208888Y229406D01*
Y229448D01*
Y229462D01*
X208902Y229600D01*
X208929Y229711D01*
X208985Y229822D01*
X209040Y229905D01*
X209096Y229975D01*
X209151Y230016D01*
X209179Y230044D01*
X209193Y230058D01*
X209387Y230183D01*
X209595Y230266D01*
X209817Y230335D01*
X210025Y230377D01*
X210205Y230405D01*
X210358Y230418D01*
X210497D01*
X210788Y230405D01*
X211037Y230363D01*
X211245Y230308D01*
X211412Y230252D01*
X211551Y230197D01*
X211647Y230141D01*
X211703Y230100D01*
X211717Y230086D01*
X211856Y229947D01*
X211980Y229781D01*
X212078Y229614D01*
X212147Y229434D01*
X212202Y229281D01*
X212230Y229156D01*
X212258Y229059D01*
Y229046D01*
Y229032D01*
X214199Y229101D01*
X214185Y229351D01*
X214144Y229573D01*
X214088Y229794D01*
X214019Y229989D01*
X213950Y230183D01*
X213867Y230363D01*
X213783Y230516D01*
X213700Y230668D01*
X213603Y230793D01*
X213520Y230904D01*
X213437Y231001D01*
X213367Y231084D01*
X213312Y231140D01*
X213270Y231181D01*
X213242Y231209D01*
X213228Y231223D01*
X213048Y231362D01*
X212854Y231486D01*
X212646Y231597D01*
X212424Y231694D01*
X212202Y231764D01*
X211980Y231833D01*
X211537Y231930D01*
X211329Y231958D01*
X211148Y231986D01*
X210968Y231999D01*
X210815Y232013D01*
X210691Y232027D01*
D02*
G37*
G36*
X163330D02*
X163164D01*
X162664Y232013D01*
X162221Y231958D01*
X162026Y231916D01*
X161832Y231875D01*
X161652Y231833D01*
X161499Y231791D01*
X161361Y231736D01*
X161222Y231694D01*
X161125Y231653D01*
X161028Y231625D01*
X160958Y231583D01*
X160903Y231570D01*
X160875Y231542D01*
X160861D01*
X160431Y231292D01*
X160251Y231140D01*
X160071Y231001D01*
X159904Y230848D01*
X159752Y230696D01*
X159613Y230543D01*
X159488Y230405D01*
X159391Y230266D01*
X159294Y230141D01*
X159211Y230030D01*
X159142Y229933D01*
X159100Y229850D01*
X159059Y229794D01*
X159045Y229753D01*
X159031Y229739D01*
X158920Y229517D01*
X158823Y229295D01*
X158670Y228838D01*
X158559Y228380D01*
X158490Y227978D01*
X158462Y227784D01*
X158434Y227617D01*
X158421Y227465D01*
Y227326D01*
X158407Y227229D01*
Y227146D01*
Y227090D01*
Y227076D01*
X158434Y226563D01*
X158490Y226091D01*
X158587Y225662D01*
X158629Y225454D01*
X158684Y225273D01*
X158740Y225107D01*
X158781Y224954D01*
X158837Y224830D01*
X158878Y224719D01*
X158906Y224635D01*
X158934Y224566D01*
X158961Y224524D01*
Y224510D01*
X159197Y224095D01*
X159461Y223734D01*
X159738Y223415D01*
X160016Y223165D01*
X160140Y223054D01*
X160265Y222957D01*
X160362Y222874D01*
X160459Y222819D01*
X160529Y222763D01*
X160598Y222722D01*
X160626Y222708D01*
X160640Y222694D01*
X160861Y222583D01*
X161070Y222486D01*
X161527Y222333D01*
X161971Y222222D01*
X162373Y222153D01*
X162567Y222125D01*
X162734Y222097D01*
X162886Y222084D01*
X163025D01*
X163122Y222070D01*
X163275D01*
X163718Y222084D01*
X164134Y222139D01*
X164537Y222208D01*
X164883Y222292D01*
X165036Y222333D01*
X165175Y222375D01*
X165299Y222416D01*
X165410Y222444D01*
X165494Y222472D01*
X165549Y222500D01*
X165591Y222514D01*
X165604D01*
X166021Y222680D01*
X166367Y222860D01*
X166672Y223041D01*
X166936Y223193D01*
X167130Y223332D01*
X167199Y223387D01*
X167269Y223443D01*
X167310Y223484D01*
X167352Y223512D01*
X167380Y223540D01*
Y227395D01*
X163205D01*
Y225773D01*
X165424D01*
Y224538D01*
X165258Y224414D01*
X165077Y224303D01*
X164897Y224205D01*
X164731Y224122D01*
X164592Y224053D01*
X164467Y223997D01*
X164398Y223970D01*
X164384Y223956D01*
X164370D01*
X164148Y223873D01*
X163926Y223817D01*
X163718Y223776D01*
X163538Y223748D01*
X163372Y223734D01*
X163261Y223720D01*
X163150D01*
X162928Y223734D01*
X162706Y223762D01*
X162512Y223803D01*
X162318Y223859D01*
X161971Y223997D01*
X161832Y224067D01*
X161694Y224150D01*
X161569Y224233D01*
X161458Y224303D01*
X161375Y224386D01*
X161291Y224441D01*
X161236Y224497D01*
X161194Y224538D01*
X161167Y224566D01*
X161153Y224580D01*
X161028Y224746D01*
X160903Y224940D01*
X160806Y225135D01*
X160723Y225343D01*
X160584Y225773D01*
X160501Y226189D01*
X160473Y226383D01*
X160445Y226577D01*
X160431Y226730D01*
X160418Y226882D01*
X160404Y226993D01*
Y227090D01*
Y227146D01*
Y227159D01*
X160418Y227451D01*
X160431Y227714D01*
X160473Y227978D01*
X160515Y228213D01*
X160570Y228421D01*
X160640Y228616D01*
X160709Y228796D01*
X160778Y228962D01*
X160834Y229101D01*
X160903Y229226D01*
X160972Y229323D01*
X161028Y229406D01*
X161070Y229475D01*
X161111Y229517D01*
X161125Y229545D01*
X161139Y229559D01*
X161291Y229697D01*
X161444Y229836D01*
X161610Y229933D01*
X161777Y230030D01*
X161943Y230113D01*
X162110Y230183D01*
X162429Y230280D01*
X162581Y230308D01*
X162720Y230335D01*
X162845Y230349D01*
X162956Y230363D01*
X163039Y230377D01*
X163164D01*
X163469Y230363D01*
X163732Y230308D01*
X163968Y230252D01*
X164176Y230169D01*
X164329Y230100D01*
X164453Y230030D01*
X164523Y229975D01*
X164550Y229961D01*
X164745Y229794D01*
X164911Y229614D01*
X165050Y229434D01*
X165147Y229254D01*
X165230Y229087D01*
X165285Y228962D01*
X165313Y228879D01*
X165327Y228865D01*
Y228851D01*
X167255Y229212D01*
X167199Y229448D01*
X167116Y229683D01*
X167033Y229891D01*
X166922Y230086D01*
X166825Y230280D01*
X166714Y230446D01*
X166603Y230599D01*
X166492Y230737D01*
X166381Y230862D01*
X166284Y230973D01*
X166201Y231070D01*
X166118Y231140D01*
X166048Y231195D01*
X165993Y231251D01*
X165965Y231264D01*
X165951Y231278D01*
X165757Y231417D01*
X165549Y231528D01*
X165327Y231625D01*
X165091Y231708D01*
X164634Y231847D01*
X164190Y231930D01*
X163982Y231972D01*
X163788Y231986D01*
X163607Y231999D01*
X163455Y232013D01*
X163330Y232027D01*
D02*
G37*
G36*
X178391Y231847D02*
X175479D01*
X173773Y225287D01*
X172053Y231847D01*
X169155D01*
Y222250D01*
X170944D01*
Y229794D01*
X172830Y222250D01*
X174702D01*
X176588Y229794D01*
X176602Y222250D01*
X178391D01*
Y231847D01*
D02*
G37*
G36*
X150141Y229364D02*
X150044D01*
X149795Y229351D01*
X149545Y229309D01*
X149323Y229254D01*
X149101Y229184D01*
X148893Y229087D01*
X148713Y228990D01*
X148532Y228879D01*
X148380Y228782D01*
X148241Y228671D01*
X148116Y228560D01*
X148005Y228463D01*
X147922Y228366D01*
X147853Y228297D01*
X147797Y228241D01*
X147770Y228200D01*
X147756Y228186D01*
Y229212D01*
X146050D01*
Y222250D01*
X147894D01*
Y225384D01*
Y225592D01*
Y225786D01*
X147908Y225967D01*
X147922Y226119D01*
Y226272D01*
X147936Y226397D01*
X147950Y226521D01*
X147964Y226618D01*
X147992Y226785D01*
X148005Y226896D01*
X148033Y226965D01*
Y226979D01*
X148089Y227132D01*
X148172Y227284D01*
X148255Y227395D01*
X148338Y227506D01*
X148421Y227575D01*
X148491Y227645D01*
X148532Y227673D01*
X148546Y227686D01*
X148699Y227770D01*
X148851Y227839D01*
X148990Y227881D01*
X149129Y227922D01*
X149240Y227936D01*
X149323Y227950D01*
X149406D01*
X149545Y227936D01*
X149670Y227922D01*
X149767Y227894D01*
X149864Y227853D01*
X149947Y227811D01*
X150002Y227784D01*
X150030Y227770D01*
X150044Y227756D01*
X150141Y227686D01*
X150211Y227603D01*
X150335Y227437D01*
X150377Y227354D01*
X150405Y227298D01*
X150432Y227257D01*
Y227243D01*
X150460Y227173D01*
X150474Y227090D01*
X150502Y226882D01*
X150529Y226632D01*
X150543Y226397D01*
X150557Y226161D01*
Y226064D01*
Y225967D01*
Y225897D01*
Y225842D01*
Y225800D01*
Y225786D01*
Y222250D01*
X152402D01*
Y226563D01*
Y226854D01*
X152388Y227090D01*
X152374Y227312D01*
X152346Y227478D01*
X152332Y227617D01*
X152305Y227714D01*
X152291Y227784D01*
Y227797D01*
X152249Y227964D01*
X152194Y228102D01*
X152138Y228241D01*
X152069Y228352D01*
X152013Y228449D01*
X151972Y228519D01*
X151944Y228560D01*
X151930Y228574D01*
X151819Y228699D01*
X151694Y228810D01*
X151570Y228907D01*
X151445Y228990D01*
X151334Y229059D01*
X151237Y229101D01*
X151181Y229129D01*
X151154Y229143D01*
X150959Y229212D01*
X150765Y229267D01*
X150585Y229309D01*
X150419Y229337D01*
X150266Y229351D01*
X150141Y229364D01*
D02*
G37*
%LPD*%
G36*
X219650Y230210D02*
X219774D01*
X219899Y230197D01*
X220079D01*
X220218Y230183D01*
X220315Y230169D01*
X220371Y230155D01*
X220385D01*
X220551Y230113D01*
X220704Y230058D01*
X220842Y229989D01*
X220953Y229905D01*
X221036Y229836D01*
X221106Y229781D01*
X221147Y229739D01*
X221161Y229725D01*
X221272Y229586D01*
X221341Y229448D01*
X221397Y229295D01*
X221439Y229156D01*
X221466Y229032D01*
X221480Y228935D01*
Y228879D01*
Y228851D01*
X221466Y228699D01*
X221453Y228560D01*
X221411Y228435D01*
X221369Y228324D01*
X221328Y228227D01*
X221300Y228158D01*
X221272Y228116D01*
X221258Y228102D01*
X221175Y227992D01*
X221064Y227894D01*
X220967Y227811D01*
X220870Y227742D01*
X220787Y227700D01*
X220718Y227659D01*
X220662Y227645D01*
X220648Y227631D01*
X220565Y227603D01*
X220468Y227589D01*
X220246Y227548D01*
X219996Y227520D01*
X219747Y227506D01*
X219497D01*
X219400Y227492D01*
X218069D01*
Y230224D01*
X219511D01*
X219650Y230210D01*
D02*
G37*
G36*
X197155D02*
X197321D01*
X197460Y230197D01*
X197585D01*
X197710Y230183D01*
X197807D01*
X197959Y230155D01*
X198070Y230141D01*
X198140Y230127D01*
X198154D01*
X198348Y230072D01*
X198514Y230002D01*
X198667Y229933D01*
X198805Y229850D01*
X198902Y229781D01*
X198986Y229725D01*
X199027Y229683D01*
X199041Y229670D01*
X199166Y229531D01*
X199277Y229378D01*
X199374Y229226D01*
X199457Y229087D01*
X199513Y228948D01*
X199554Y228838D01*
X199582Y228768D01*
X199596Y228754D01*
Y228740D01*
X199665Y228491D01*
X199721Y228227D01*
X199748Y227936D01*
X199776Y227659D01*
X199790Y227423D01*
X199804Y227312D01*
Y227215D01*
Y227146D01*
Y227090D01*
Y227048D01*
Y227035D01*
X199790Y226646D01*
X199776Y226286D01*
X199735Y225994D01*
X199707Y225745D01*
X199665Y225537D01*
X199651Y225454D01*
X199624Y225398D01*
X199610Y225343D01*
Y225301D01*
X199596Y225287D01*
Y225273D01*
X199513Y225051D01*
X199443Y224857D01*
X199346Y224705D01*
X199277Y224580D01*
X199208Y224483D01*
X199152Y224414D01*
X199111Y224372D01*
X199097Y224358D01*
X198972Y224261D01*
X198847Y224178D01*
X198722Y224108D01*
X198597Y224053D01*
X198486Y224011D01*
X198403Y223983D01*
X198348Y223956D01*
X198320D01*
X198167Y223928D01*
X197987Y223914D01*
X197793Y223887D01*
X197599D01*
X197419Y223873D01*
X195713D01*
Y230224D01*
X196975D01*
X197155Y230210D01*
D02*
G37*
D10*
X1270Y215900D02*
Y368300D01*
X331470D01*
Y215900D02*
Y368300D01*
X1270Y215900D02*
X331470D01*
D21*
X26670Y323850D02*
Y336550D01*
Y349250D02*
Y361950D01*
Y298450D02*
Y311150D01*
Y247650D02*
Y260350D01*
Y273050D02*
Y285750D01*
Y222250D02*
Y234950D01*
X306070Y349250D02*
Y361950D01*
X312420Y368300D01*
X325120D02*
X331470Y361950D01*
X312420Y368300D02*
X325120D01*
X306070Y336550D02*
X312420Y342900D01*
X306070Y323850D02*
Y336550D01*
Y323850D02*
X312420Y317500D01*
X325120D01*
X331470Y323850D01*
Y336550D01*
X325120Y342900D02*
X331470Y336550D01*
X306070Y349250D02*
X312420Y342900D01*
X325120D01*
X331470Y349250D01*
Y361950D01*
X306070Y273050D02*
Y285750D01*
X312420Y292100D01*
X325120D02*
X331470Y285750D01*
X306070Y311150D02*
X312420Y317500D01*
X306070Y298450D02*
Y311150D01*
Y298450D02*
X312420Y292100D01*
X325120D01*
X331470Y298450D01*
Y311150D01*
X325120Y317500D02*
X331470Y311150D01*
X306070Y260350D02*
X312420Y266700D01*
X306070Y247650D02*
Y260350D01*
Y247650D02*
X312420Y241300D01*
X325120D01*
X331470Y247650D01*
Y260350D01*
X325120Y266700D02*
X331470Y260350D01*
X306070Y273050D02*
X312420Y266700D01*
X325120D01*
X331470Y273050D01*
Y285750D01*
X306070Y234950D02*
X312420Y241300D01*
X306070Y222250D02*
Y234950D01*
Y222250D02*
X312420Y215900D01*
X325120D01*
X331470Y222250D01*
Y234950D01*
X325120Y241300D02*
X331470Y234950D01*
X1270Y349250D02*
Y361950D01*
X7620Y368300D01*
X20320D02*
X26670Y361950D01*
X7620Y368300D02*
X20320D01*
X1270Y336550D02*
X7620Y342900D01*
X1270Y323850D02*
Y336550D01*
Y323850D02*
X7620Y317500D01*
X20320D01*
X26670Y323850D01*
X20320Y342900D02*
X26670Y336550D01*
X1270Y349250D02*
X7620Y342900D01*
X20320D01*
X26670Y349250D01*
X1270Y273050D02*
Y285750D01*
X7620Y292100D01*
X20320D02*
X26670Y285750D01*
X1270Y311150D02*
X7620Y317500D01*
X1270Y298450D02*
Y311150D01*
Y298450D02*
X7620Y292100D01*
X20320D01*
X26670Y298450D01*
X20320Y317500D02*
X26670Y311150D01*
X1270Y260350D02*
X7620Y266700D01*
X1270Y247650D02*
Y260350D01*
Y247650D02*
X7620Y241300D01*
X20320D01*
X26670Y247650D01*
X20320Y266700D02*
X26670Y260350D01*
X1270Y273050D02*
X7620Y266700D01*
X20320D01*
X26670Y273050D01*
X1270Y234950D02*
X7620Y241300D01*
X1270Y222250D02*
Y234950D01*
Y222250D02*
X7620Y215900D01*
X20320D01*
X26670Y222250D01*
X20320Y241300D02*
X26670Y234950D01*
X63500Y350012D02*
X266700D01*
Y325120D02*
Y350012D01*
Y248412D02*
Y325120D01*
X63500Y248412D02*
X266700D01*
X63500D02*
Y325120D01*
Y350012D01*
Y325120D02*
X266700D01*
X75438Y260096D02*
Y312928D01*
X254762D01*
Y260096D02*
Y312928D01*
X75438Y260096D02*
X254762D01*
D22*
X102108Y266446D02*
X104648Y286766D01*
X107188Y306578D01*
X124460D01*
X121920Y286766D02*
X124460Y306578D01*
X119380Y266446D02*
X121920Y286766D01*
X102108Y266446D02*
X119380D01*
X104648Y286766D02*
X121920D01*
X137668Y265938D02*
X140208Y286258D01*
X142748Y306070D01*
X160020D01*
X157480Y286258D02*
X160020Y306070D01*
X154940Y265938D02*
X157480Y286258D01*
X137668Y265938D02*
X154940D01*
X140208Y286258D02*
X157480D01*
X173228Y265938D02*
X175768Y286258D01*
X178308Y306070D01*
X195580D01*
X193040Y286258D02*
X195580Y306070D01*
X190500Y265938D02*
X193040Y286258D01*
X173228Y265938D02*
X190500D01*
X175768Y286258D02*
X193040D01*
X208534Y266192D02*
X211074Y286512D01*
X213614Y306324D01*
X230886D01*
X228346Y286512D02*
X230886Y306324D01*
X225806Y266192D02*
X228346Y286512D01*
X208534Y266192D02*
X225806D01*
X211074Y286512D02*
X228346D01*
D23*
X128270Y266192D02*
D03*
X199644D02*
D03*
X164338Y265938D02*
D03*
X167640Y290068D02*
D03*
X165862Y277622D02*
D03*
D24*
X82550Y353099D02*
D03*
X112550D02*
D03*
X142550D02*
D03*
X172550D02*
D03*
X202550D02*
D03*
X232550D02*
D03*
D25*
X97550D02*
D03*
X127550D02*
D03*
X157550D02*
D03*
X187550D02*
D03*
X217550D02*
D03*
X247550D02*
D03*
D26*
X82550Y337566D02*
D03*
X97551D02*
D03*
X112550D02*
D03*
X127551D02*
D03*
X142550D02*
D03*
X157551D02*
D03*
X172550D02*
D03*
X187551D02*
D03*
X202550D02*
D03*
X217551D02*
D03*
X232550D02*
D03*
X247551D02*
D03*
M02*
