G04 Layer_Physical_Order=1*
G04 Layer_Color=255*
%FSLAX44Y44*%
%MOMM*%
G71*
G01*
G75*
%ADD10C,0.5000*%
%ADD11C,0.2500*%
G04:AMPARAMS|DCode=12|XSize=1.6002mm|YSize=1.6002mm|CornerRadius=0mm|HoleSize=0mm|Usage=FLASHONLY|Rotation=270.000|XOffset=0mm|YOffset=0mm|HoleType=Round|Shape=Octagon|*
%AMOCTAGOND12*
4,1,8,-0.4001,-0.8001,0.4001,-0.8001,0.8001,-0.4001,0.8001,0.4001,0.4001,0.8001,-0.4001,0.8001,-0.8001,0.4001,-0.8001,-0.4001,-0.4001,-0.8001,0.0*
%
%ADD12OCTAGOND12*%

%ADD13R,0.8999X0.8999*%
%ADD14C,0.8999*%
%ADD15C,0.7000*%
D10*
X76200Y270550D02*
Y324550D01*
X45150Y355600D02*
X76200Y324550D01*
X13970Y355600D02*
X45150D01*
X83860Y262890D02*
X109220D01*
X76200Y270550D02*
X83860Y262890D01*
D11*
X109220Y253314D02*
Y262890D01*
Y253314D02*
X113904Y248630D01*
X1270Y215900D02*
Y368300D01*
X331470D01*
Y215900D02*
Y368300D01*
X1270Y215900D02*
X331470D01*
X199976Y236806D02*
X318770Y355600D01*
X130478Y236806D02*
X199976D01*
X82550Y355600D02*
X113792Y324358D01*
Y270496D02*
Y324358D01*
Y270496D02*
X121386Y262902D01*
Y256794D02*
Y262902D01*
Y256794D02*
X133096Y245084D01*
X163550D01*
X118364Y272288D02*
X137504Y253148D01*
X118364Y272288D02*
Y349786D01*
X112550Y355600D02*
X118364Y349786D01*
X255524Y317500D02*
Y362204D01*
X254254Y363474D02*
X255524Y362204D01*
X105425Y363474D02*
X254254D01*
X97551Y355600D02*
X105425Y363474D01*
X127551Y281579D02*
X141550Y267581D01*
X127551Y281579D02*
Y355600D01*
D12*
X318770Y228600D02*
D03*
Y254000D02*
D03*
Y279400D02*
D03*
Y304800D02*
D03*
Y330200D02*
D03*
Y355600D02*
D03*
X13970Y228600D02*
D03*
Y254000D02*
D03*
Y279400D02*
D03*
Y304800D02*
D03*
Y330200D02*
D03*
Y355600D02*
D03*
D13*
X82550D02*
D03*
D14*
X97551D02*
D03*
X112550D02*
D03*
X127551D02*
D03*
X142550D02*
D03*
X157551D02*
D03*
X172550D02*
D03*
X187551D02*
D03*
X202550D02*
D03*
X217551D02*
D03*
X232550D02*
D03*
X247551D02*
D03*
D15*
X130478Y236806D02*
D03*
X163550Y245084D02*
D03*
X137504Y253148D02*
D03*
X255524Y317500D02*
D03*
X109220Y262890D02*
D03*
X113904Y248630D02*
D03*
X141550Y267581D02*
D03*
M02*
