M48
;Layer_Color=9474304
;FILE_FORMAT=4:4
METRIC,LZ
;TYPE=PLATED
T1F00S00C0.2500
T2F00S00C0.5999
T3F00S00C1.0000
%
T01
X00113904Y0024863
X0010922Y0026289
X0014155Y00267581
X00137504Y00253148
X00130478Y00236806
X0016355Y00245084
X00255524Y003175
T02
X0008255Y003556
X00097551
X0011255
X00127551
X0014255
X00157551
X0017255
X00187551
X0020255
X00217551
X0023255
X00247551
T03
X0001397Y002286
Y00254
Y002794
Y003048
Y003302
Y003556
X0031877
Y003302
Y003048
Y002794
Y00254
Y002286
M30
